/* XPM */
static char *_578656632346[] = {
/* columns rows colors chars-per-pixel */
"18 42 2 1 ",
"  c black",
". c None",
/* pixels */
"                  ",
"                  ",
"                  ",
"                  ",
"                  ",
"                  ",
"      ......      ",
"      ......      ",
"      ......      ",
"      ......      ",
"      ......      ",
"      ......      ",
"      ......      ",
"      ......      ",
"      ......      ",
"      ......      ",
"      ......      ",
"      ......      ",
"      ......      ",
"      ......      ",
"      ......      ",
"      ......      ",
"      ......      ",
"      ......      ",
"      ......      ",
"      ......      ",
"      ......      ",
"      ......      ",
"      ......      ",
"      ......      ",
"      ......      ",
"      ......      ",
"      ......      ",
"      ......      ",
"      ......      ",
"      ......      ",
"                  ",
"                  ",
"                  ",
"                  ",
"                  ",
"                  "
};
