/* XPM */
static char *result[] = {
/* columns rows colors chars-per-pixel */
"32 32 142 2 ",
"   c #1C223D",
".  c #1D2544",
"X  c #1F2545",
"o  c #1F2647",
"O  c #1F2649",
"+  c #1E264A",
"@  c #1F264A",
"#  c #1F274B",
"$  c #20274C",
"%  c #202849",
"&  c #20294B",
"*  c #20284D",
"=  c #20294D",
"-  c #212A4C",
";  c #212A4D",
":  c #222B4D",
">  c #20284E",
",  c #21294E",
"<  c #21294F",
"1  c #212A4E",
"2  c #212B4E",
"3  c #212C4C",
"4  c #222C4D",
"5  c #222D4D",
"6  c #222C4F",
"7  c #242E4F",
"8  c #212B50",
"9  c #212B51",
"0  c #222C50",
"q  c #222C51",
"w  c #222E50",
"e  c #232F51",
"r  c #212C52",
"t  c #222C52",
"y  c #222D53",
"u  c #232E52",
"i  c #222E53",
"p  c #242D50",
"a  c #242E51",
"s  c #222C55",
"d  c #232E54",
"f  c #232F55",
"g  c #222C56",
"h  c #232D57",
"j  c #222E56",
"k  c #232E56",
"l  c #232E57",
"z  c #242D54",
"x  c #242E55",
"c  c #242E56",
"v  c #242F56",
"b  c #232E59",
"n  c #242E58",
"m  c #242E59",
"M  c #242F59",
"N  c #242D5A",
"B  c #252E5A",
"V  c #242F5A",
"C  c #242E5B",
"Z  c #242E5C",
"A  c #252F5C",
"S  c #252F5D",
"D  c #243052",
"F  c #253053",
"G  c #243054",
"H  c #243055",
"J  c #253155",
"K  c #253255",
"L  c #243056",
"P  c #243057",
"I  c #243058",
"U  c #253058",
"Y  c #253159",
"T  c #273259",
"R  c #24305A",
"E  c #25305A",
"W  c #25315B",
"Q  c #26325A",
"!  c #27335A",
"~  c #26325B",
"^  c #24305C",
"/  c #26315D",
"(  c #26325C",
")  c #27325C",
"_  c #26325D",
"`  c #25305F",
"'  c #26305E",
"]  c #26315F",
"[  c #26325E",
"{  c #27335E",
"}  c #27335F",
"|  c #27345E",
" . c #27355E",
".. c #29355C",
"X. c #28345D",
"o. c #29355E",
"O. c #28355F",
"+. c #263260",
"@. c #273361",
"#. c #273460",
"$. c #273563",
"%. c #273364",
"&. c #293560",
"*. c #283561",
"=. c #283562",
"-. c #283463",
";. c #293662",
":. c #283663",
">. c #293663",
",. c #283565",
"<. c #293565",
"1. c #293664",
"2. c #293764",
"3. c #293765",
"4. c #2A3765",
"5. c #293566",
"6. c #283467",
"7. c #293567",
"8. c #293667",
"9. c #2A3766",
"0. c #2A3667",
"q. c #2A3865",
"w. c #2B3966",
"e. c #2B3867",
"r. c #2B3A66",
"t. c #293568",
"y. c #293569",
"u. c #293668",
"i. c #2A3669",
"p. c #2A3769",
"a. c #29356A",
"s. c #29376A",
"d. c #2A366B",
"f. c #2A376B",
"g. c #2B376C",
"h. c #2B3969",
"j. c #2A386B",
"k. c #2B396B",
"l. c #2C3B68",
"z. c #2C396D",
"x. c #2D3B6C",
"c. c #2C396E",
/* pixels */
"* J V o.' ;.o.o.' 3.[ ;.] ] U F u W ' ] 3.S o.o.w.3.) #.*.*.c z ",
"M x W ;.q.;.o.o. .] =.{ c q e E q.4.f.a.&.{ Y o.q q D c L D d q ",
"O.W i K S t.i.3.3.u.$.W c m B l U k e a c Y l d a y 9 * % 8 f W ",
";.i / } W ' +.M q w 9 y j c W E f D P l P K K c : 8 k c L j :.>.",
"( j 8 M U c 2 o q ^ | m { { k c ,.=.=.1.$.[ c y ( A  .+.0.0.*.) ",
"E j q Y v f W ^ { N W W ^  .) q.{ l m C f t g W ( k ( Q c l K s ",
"+.;.*.f { q.w.=.w.@.O.&.i.i.3.B W m *.^ V W Y Y +.8.+.3.i.} W 9.",
"/ #.p.' f 1.a.p.q D g { O.#.5.7.~ ) <.1.:.' @.X.w 2 E { +.,.h.w.",
"q.q.Q q j g W *.X.' | c k e 8 z U &.P b *.*.V ) +.m b S ^ o.U c ",
"Q *.c X.c 9 k  .| 4.a.a.o.W E r 0 E | *.w 6 a u y 7.{ t K B [ =.",
"L s d m S Z =.h c c e a t a 0 c ) m 0 v ' ^ W k y < G > = + & ! ",
"c j _ W ~ *.+.C 0 8 < y 4 q k U w 8 Q ( X.Y f B u q 2 l ; 6 R g ",
"q.) U c 8.3.c $ t j D l +.+.{ b 2.2.=.>.j.} e E p.;.{ c ( <.W j ",
";.l.e.>.O.' @.>.V k c { W ~ ;.a.7.8.x.-.j w Q 8.=.p.y.d.{ x [ 8.",
"( D f } a.y.f.a.a.8.Z W A { X.W W / k 8 c Y W V d.a.q.3.2.V n k ",
"c 2 U K l Q S W = , j E j j j w # w c c j *.a.a.2.+.4.e.{ { s.O.",
"W =.] U ) { X.X.3.S i K W y d 8 , q D q f n W W { q.~ T Q &.c 0 ",
"w.q.t.y.' S o.O.o.{ +.=.c m ) &.*.S ;.@.O.N y H P L P U j 8 e F ",
"q.O.U Y | W W f U C _ { e.8.q.=.q.$.{ 2.z.d.i.w.&.;.$.$.] @.( ( ",
"2.0 g ~ d 2 P @.a K h m c P @.2.#.W e.d.8.w.7.a.w.O.W s W ( 0.a.",
"; q l 2.%.{ 8 1 q ( l j n n r D V 8 6 i k K > > t 8 > r { } U o.",
"( ~ m W _ A ] =.A t +.+.Z / j *.{ ^ / } e , q r y c #.o.L Y  .&.",
"7.7.=.{ l +.;.q.q.=.n { g.a.;.{ _ [ { } ' ' =.) ;.3.{ Y } 7.q.q.",
"j Y <.<.n c X.Q q i r 2 n 3.t.;.Y q A S W ^ +.*.i q D t c t Q O.",
"S >.W Y ( y ; p 2 j j @ q c 8 5 q W A ;.4.j y q 0 < y t q O   X ",
"X.&.O.q.7 e e U ;.8.a.8.j U +.} #.&.} f.~ K t L g +.6.4.+.q.] V ",
"8.t.q.i.c.3.{ a.a.k.4.3.2./ d O.[ ] 2.O.O.' 3.8.a.r.=.+.@.+.,.p.",
". - k Y E ..t.7.( n c n q 0 q 8 4 * 2 q r n ` E j c j U q j ^ &.",
"H 3 t K q.2.6 4 c &.w.$.i.i.1.' c s 8 k l j 1 $ r g k c W W 6 $ ",
"} { w.c.w.>.&./ j ( V 8.=.2.a.i.' *.k.8.2.=.&.O.D W ;.7.&.X.*.{ ",
"$.^ - % 9 d r E _ W E ) 8.t.w.+.' =.U f S | &.O.=.{ G D c *.*.c ",
"5 w l s s I { 2.W j l &.o.} O.Q 8 D )  .K Y { { e q Y ^ Y P j j "
};
