/* XPM */
static char *result[] = {
/* columns rows colors chars-per-pixel */
"16 16 76 1 ",
"  c #6A1513",
". c #6B1513",
"X c #6F1613",
"o c #711614",
"O c #721614",
"+ c #771715",
"@ c #7C1715",
"# c #7C1816",
"$ c #7D1816",
"% c #7E1816",
"& c #7F1816",
"* c #811916",
"= c #851815",
"- c #861A17",
"; c #8D1A17",
": c #8D1B18",
"> c #8B1C18",
", c #8F1C18",
"< c #8E1C19",
"1 c #901C19",
"2 c #961E1A",
"3 c #971E1A",
"4 c #961F1A",
"5 c #981E1B",
"6 c #991F1B",
"7 c #9A1F1B",
"8 c #97201B",
"9 c #99201B",
"0 c #9A201B",
"q c #9B201B",
"w c #9C201B",
"e c #9C241B",
"r c #9B201C",
"t c #9D201C",
"y c #9C211C",
"u c #9E211C",
"i c #A1211C",
"p c #A2221D",
"a c #A3221D",
"s c #A4221D",
"d c #A5221D",
"f c #A6221D",
"g c #A7221D",
"h c #A6231D",
"j c #A6231E",
"k c #A7231E",
"l c #A6271E",
"z c #A8231E",
"x c #A9231E",
"c c #AA231E",
"v c #A8241E",
"b c #AB241E",
"n c #AC241E",
"m c #AD251F",
"M c #AE2620",
"N c #AC2C23",
"B c #B02720",
"V c #B22721",
"C c #B72A22",
"Z c #BD2F25",
"A c #BF2F25",
"S c #BD3026",
"D c #C32F26",
"F c #C23026",
"G c #CA3328",
"H c #CA342A",
"J c #E53C2F",
"K c #E63C2F",
"L c #DD4837",
"P c #E84232",
"I c #EC4334",
"U c #ED4636",
"Y c #F3533F",
"T c #FE5B45",
"R c #FF5C46",
"E c None",
/* pixels */
"EEEEEEEEEEEEEEEE",
"EEEZF-EEEEE<<-EE",
"EEGJIB1EEE157<-E",
"EAKRRPD6E26Mbyu-",
"EFURTCVviknma4r<",
"EeLYSMMMMmkf98*-",
"ElNHdpnMmzd6w:#+",
"E<<sdqiMxfq0=%  ",
"EE<3zdthfq03$o E",
"EEE<<jd6w6;$. EE",
"EEEE<<cg0>&X EEE",
"EEEEE<1v,@. EEEE",
"EEEEEE<<*O EEEEE",
"EEEEEEE   EEEEEE",
"EEEEEEEE EEEEEEE",
"EEEEEEEEEEEEEEEE"
};
