/* XPM */
static char *result[] = {
/* columns rows colors chars-per-pixel */
"32 32 110 2 ",
"   c #362417",
".  c #3E291A",
"X  c #3E291B",
"o  c #40291B",
"O  c #422B1D",
"+  c #432C1C",
"@  c #452C1C",
"#  c #462C1D",
"$  c #462D1D",
"%  c #452C1E",
"&  c #462D1E",
"*  c #462C1F",
"=  c #472E1E",
"-  c #472E1F",
";  c #492F1E",
":  c #4A2F1F",
">  c #47301E",
",  c #48301F",
"<  c #49301F",
"1  c #4A301F",
"2  c #472E20",
"3  c #492F20",
"4  c #492F21",
"5  c #4A2F20",
"6  c #4B3020",
"7  c #4A3021",
"8  c #4B3221",
"9  c #4C3020",
"0  c #4D3120",
"q  c #4C3121",
"w  c #4F3121",
"e  c #4E3221",
"r  c #4E3321",
"t  c #4D3322",
"y  c #4F3322",
"u  c #4F3422",
"i  c #503122",
"p  c #503323",
"a  c #513522",
"s  c #513523",
"d  c #533523",
"f  c #513424",
"g  c #513524",
"h  c #523524",
"j  c #523624",
"k  c #533625",
"l  c #543724",
"z  c #553625",
"x  c #543725",
"c  c #563724",
"v  c #573725",
"b  c #543726",
"n  c #553925",
"m  c #573925",
"M  c #553926",
"N  c #573826",
"B  c #573926",
"V  c #573827",
"C  c #573927",
"Z  c #563A26",
"A  c #593925",
"S  c #583926",
"D  c #593927",
"F  c #5A3927",
"G  c #593A26",
"H  c #583B26",
"J  c #5A3B26",
"K  c #5A3B27",
"L  c #5D3B27",
"P  c #5C3D27",
"I  c #5D3D27",
"U  c #583928",
"Y  c #593928",
"T  c #5A3A29",
"R  c #5B3C28",
"E  c #5D3C28",
"W  c #5C3D28",
"Q  c #5D3C29",
"!  c #5E3D28",
"~  c #5E3D29",
"^  c #5F3D29",
"/  c #603F29",
"(  c #613F29",
")  c #603D2A",
"_  c #613E2A",
"`  c #613F2A",
"'  c #623E2B",
"]  c #633F2B",
"[  c #643F2C",
"{  c #61402A",
"}  c #62412A",
"|  c #62402B",
" . c #64412B",
".. c #64422B",
"X. c #63402C",
"o. c #64402C",
"O. c #65422C",
"+. c #65432D",
"@. c #66432D",
"#. c #67432D",
"$. c #66442C",
"%. c #68432D",
"&. c #68442C",
"*. c #69442E",
"=. c #68452E",
"-. c #6A452E",
";. c #69462E",
":. c #6A462E",
">. c #6C482F",
",. c #6E4931",
/* pixels */
"> i m Y J ^ Y Y J | K ^ W W x q t c J W { P Y Y X.| N L E E l j ",
"d a B ^ ' ^ T T D W ` R s q q c ] ] =.;.Q R N T q q q s g q p q ",
"E c i i J &.=.{ { O.` B s n B l x s q t s N l p t s t > O : p c ",
"^ w G E v J ! c 9 q r y p s B c p q h l f i i s - 1 s s g s ` ) ",
"B p 1 d x s = o q G F n K K d s  .` ~ ` ` K s s B m F ! +.+.E N ",
"c p q N s p B A K H B v A D N ' W l n A p t l v B d B C l l i s ",
"! ^ ~ p W ' X.~ X.! R Q =.=.o.B B n E G m v N d ! @.! { =.E B o.",
"G L #.J p ` &.#.9 q j W R L O...v N ..` ` J ! D 5 = c K !  .O.X.",
"| | v 9 s l B E C J F x s q 8 j x Q h m E E m S ! n n J G T x x ",
"C E s D x 0 d D F ] =.=.Y S c e 3 c F E 5 3 t t p O.K t i B K ~ ",
"g s s n J J ~ n l x q t t q 5 s N n 6 s J G v d y 1 i < # @ # z ",
"s p c v N E I m 5 : 1 y * 9 d x q 8 C B D N p B t 9 - l # 3 c j ",
"' N x l  .{ d = t s q l I ! K m _ _ ~ { -.E q c #.^ W s B ..B s ",
"^ [ X.{ R J ~ { m d x W v v ^ =...o.*.} s 5 v @.~ #.=.:.K a K @.",
"S q p E &.&.=.=.;.O.A c m K C c B G d : s d B m :.=.' { _ m l s ",
"s : k i l C P B # = s c d s d 5 $ 5 s s y ~ &.=._ ! ] X.K W %.R ",
"v ~ W x S W C C _ J i i B s p 1 , 9 q q p l v v R | N b C Q s 7 ",
"X.' &.=.J P T E Y K ! ~ s n N Q E J _ ! E H p f h g h x s 8 q q ",
"' R x N F v v p M m S R X.O.o.~ ' / R _ ,.:.=.X.Q ^ ` ( I ! B B ",
"_ 3 l U y = p ~ t i n n s h ! _ L v X.:.@.X.O.&.X.R v s v B +.=.",
"* 9 l _ ( K : = q B l s Z Z e q m : 3 i s i ; < 0 1 ; r K E k Y ",
"B v n B S J I ~ J a ! ! J J s E W A G E q = q e y s L T g N D Q ",
"..O.~ K l ! ^ ' ' ~ l K >.;.^ K S K W E J J ~ N ^ | K N E ..o.' ",
"s d ....Z s C v 9 w e = l { &.^ d q J J v G ! ~ w 9 q t s 0 C R ",
"P ' v N B p * 4 - p p + q x 7 2 t v J ^ ] s p q 3 1 y u 9 +   X ",
"D E R ' 2 q 5 x ^ o.;.@.s M ! E L Q E *.v i t g l ! $. .! | I m ",
"O.&.| =.>.{ K =.=.#.] | _ G p R K W _ R R J ' O.&.' ~ ! ! !  .#.",
". & d d c V &.O.B l s l q 3 0 : * > = q r l I c p s y x 9 s A Q ",
"f % u i ' _ 3 2 x Q X.` =.=.` J s s : d l p = = e j d x B B 3 = ",
"E W X.,.X.' Q G s B m @.~ _ =.=.J E #.@._ ~ Q R q v ^ O.Q D ~ K ",
"` A & O r p e c S B c N @.&.X.! J ~ k p J F Q R ` K i q x ~ E s ",
"2 5 l j s d R _ v s l Q Y E R C : q N F i N W K q q N G N h p s "
};
