/* XPM */
static char *result[] = {
/* columns rows colors chars-per-pixel */
"32 32 256 2 ",
"   c #351514",
".  c #3D1817",
"X  c #431918",
"o  c #411A18",
"O  c #411A19",
"+  c #431C19",
"@  c #441A19",
"#  c #451A1A",
"$  c #461B1B",
"%  c #451C1A",
"&  c #461C1B",
"*  c #461C1C",
"=  c #471D1D",
"-  c #481C1A",
";  c #481C1B",
":  c #491D1C",
">  c #4A1D1D",
",  c #4A1E1C",
"<  c #4A1E1D",
"1  c #4B1E1E",
"2  c #4C1D1C",
"3  c #4E1D1D",
"4  c #4D1E1C",
"5  c #4D1E1D",
"6  c #4D1E1E",
"7  c #501E1E",
"8  c #511F1F",
"9  c #4B201D",
"0  c #4E201D",
"q  c #4E201E",
"w  c #4F201F",
"e  c #50201E",
"r  c #51201F",
"t  c #52221F",
"y  c #54201F",
"u  c #54221F",
"i  c #58221F",
"p  c #532120",
"a  c #522220",
"s  c #532321",
"d  c #552020",
"f  c #562121",
"g  c #552220",
"h  c #552221",
"j  c #562222",
"k  c #552420",
"l  c #552421",
"z  c #562422",
"x  c #562423",
"c  c #582320",
"v  c #582321",
"b  c #582322",
"n  c #582323",
"m  c #582520",
"M  c #582421",
"N  c #592422",
"B  c #5A2423",
"V  c #5A2623",
"C  c #592424",
"Z  c #5C2522",
"A  c #5C2523",
"S  c #5C2623",
"D  c #5C2524",
"F  c #5D2624",
"G  c #5E2625",
"H  c #612525",
"J  c #602724",
"K  c #602625",
"L  c #612626",
"P  c #642726",
"I  c #642727",
"U  c #602824",
"Y  c #622825",
"T  c #612826",
"R  c #632827",
"E  c #642826",
"W  c #652827",
"Q  c #642A27",
"!  c #662A28",
"~  c #682A28",
"^  c #682C28",
"/  c #692C29",
"(  c #6C2E2A",
")  c black",
"_  c black",
"`  c black",
"'  c black",
"]  c black",
"[  c black",
"{  c black",
"}  c black",
"|  c black",
" . c black",
".. c black",
"X. c black",
"o. c black",
"O. c black",
"+. c black",
"@. c black",
"#. c black",
"$. c black",
"%. c black",
"&. c black",
"*. c black",
"=. c black",
"-. c black",
";. c black",
":. c black",
">. c black",
",. c black",
"<. c black",
"1. c black",
"2. c black",
"3. c black",
"4. c black",
"5. c black",
"6. c black",
"7. c black",
"8. c black",
"9. c black",
"0. c black",
"q. c black",
"w. c black",
"e. c black",
"r. c black",
"t. c black",
"y. c black",
"u. c black",
"i. c black",
"p. c black",
"a. c black",
"s. c black",
"d. c black",
"f. c black",
"g. c black",
"h. c black",
"j. c black",
"k. c black",
"l. c black",
"z. c black",
"x. c black",
"c. c black",
"v. c black",
"b. c black",
"n. c black",
"m. c black",
"M. c black",
"N. c black",
"B. c black",
"V. c black",
"C. c black",
"Z. c black",
"A. c black",
"S. c black",
"D. c black",
"F. c black",
"G. c black",
"H. c black",
"J. c black",
"K. c black",
"L. c black",
"P. c black",
"I. c black",
"U. c black",
"Y. c black",
"T. c black",
"R. c black",
"E. c black",
"W. c black",
"Q. c black",
"!. c black",
"~. c black",
"^. c black",
"/. c black",
"(. c black",
"). c black",
"_. c black",
"`. c black",
"'. c black",
"]. c black",
"[. c black",
"{. c black",
"}. c black",
"|. c black",
" X c black",
".X c black",
"XX c black",
"oX c black",
"OX c black",
"+X c black",
"@X c black",
"#X c black",
"$X c black",
"%X c black",
"&X c black",
"*X c black",
"=X c black",
"-X c black",
";X c black",
":X c black",
">X c black",
",X c black",
"<X c black",
"1X c black",
"2X c black",
"3X c black",
"4X c black",
"5X c black",
"6X c black",
"7X c black",
"8X c black",
"9X c black",
"0X c black",
"qX c black",
"wX c black",
"eX c black",
"rX c black",
"tX c black",
"yX c black",
"uX c black",
"iX c black",
"pX c black",
"aX c black",
"sX c black",
"dX c black",
"fX c black",
"gX c black",
"hX c black",
"jX c black",
"kX c black",
"lX c black",
"zX c black",
"xX c black",
"cX c black",
"vX c black",
"bX c black",
"nX c black",
"mX c black",
"MX c black",
"NX c black",
"BX c black",
"VX c black",
"CX c black",
"ZX c black",
"AX c black",
"SX c black",
"DX c black",
"FX c black",
"GX c black",
"HX c black",
"JX c black",
"KX c black",
"LX c black",
"PX c black",
"IX c black",
"UX c black",
/* pixels */
"% 6 g n N F n n N T B F S S p 6 q g N S K V n n L T h N A A r t ",
"y 7 z F L F C C B S F B r 5 1 d K L ~ ^ F V h C < < 6 r r 6 6 < ",
"B g 5 6 N W ! T K E G z r g l t h e 1 6 r h t 6 6 q 9 % O ; q g ",
"F 3 v A h N A y : > 4 5 7 r z d q 6 r t 8 6 6 r & ; e r r e F G ",
"h 7 ; y h r & . 5 M N k N N r r K F F K G A r q h g b A Q Q A h ",
"d 7 5 h r q z c N l z h g B h K B r g k q q t h v e h j r t 6 e ",
"A F D q B K L F L F B F ! ! T l z k A M g h h y A Q A T ! A N L ",
"v N W N q K Q W : 6 r B B N T T d h T K F N F b > & d N A K W L ",
"T T d 2 e t N A b N N a e 6 5 t a F p u A A g j A g u N M C s a ",
"j A r b a , r B N L ! ! n z d 5 ; d N A > : 6 q 6 R N 5 6 l B F ",
"r e r k N m F k r a 1 6 q < : r h k , r N M h e 5 , 3 ; @ X O d ",
"r 7 d h f A A k : ; , 5 $ : e p > < j h b h q l q : & r # : y r ",
"L h s r P K r @ 5 e > r A A N u K K F K ~ A 1 d W F B r h T N e ",
"G P R G B N F K g e a B h d F W T I ~ U e > d Q F W ! / N 5 B Q ",
"B 6 q A Q ~ ~ ! ^ W i g g N j g N v e ; r y z g / ! K K K g a e ",
"r & p 6 u j V z # ; e d e e e > @ > r r 5 D Q ! K A L R N B W B ",
"h F S d j B j j H M 6 6 z q 6 ; ; : 6 < e a h h V T h h j F r < ",
"L K W ! N V C B n N A F r g h F A M F F B l 6 w p r r p e < 1 6 ",
"L B p h N h h q z m N S R W T F L K B K ( / ! L F F G F A F h h ",
"K ; r x 7 & 7 F 1 6 k g r p F K N h R / Q L W Q L B h e h h Q ~ ",
"& : t K J N ; & 5 v r e l l 5 6 g ; : 6 e 6 - ; 2 ; - 4 N A p n ",
"h d g z N N A F M 0 A A m N e A B g v A 6 ; 5 5 5 r N C r h B D ",
"E W F N r A F K L F a N / ^ G N N A B A N N F h G T N h A T T K ",
"e y T T l r j d : 3 5 & a T W G y > M N h M A D 3 : > 5 r 2 j B ",
"V G h h h 6 & > ; 7 7 + < a < * q h M F K e 6 5 ; , 5 0 : o   . ",
"b F B L > 6 > s F I ^ Q e z S A N D A ! d 6 q r t A E Y A T A k ",
"W W T ! / T N W ! W L T K h 6 B B S K B A Z L W Q L F A F A K W ",
". % r y d j W W h g r a > ; ; ; $ % & > 4 a Z d 7 r 5 p 2 e c F ",
"w # 0 6 L K : * a F L G ! ! K N r e ; e r 7 & % 5 r e a z z : % ",
"A B L ( L G F v e h g Q F K ! ! N A W Q K F D B 6 h F R F b D N ",
"G g % O 4 6 5 d N N d h Q W L A Z F d q M N D B F N 3 > a D A r ",
"* > t r e 7 V K h e t F n A B j ; 6 h b 7 h B N 1 > h M h r 7 e "
};
