/* XPM */
static char *_c538d33e3984d6ba1a610966d1170d1[] = {
/* columns rows colors chars-per-pixel */
"32 32 60 1 ",
"  c #161717",
". c #171718",
"X c #171818",
"o c #1B1B1C",
"O c #23160D",
"+ c #27190F",
"@ c #29190F",
"# c #271910",
"$ c #2C1D12",
"% c #311F12",
"& c #2F2015",
"* c #322216",
"= c #392517",
"- c #352419",
"; c #39261A",
": c #36281D",
"> c #3C2A1D",
", c #1F1F20",
"< c #1F2021",
"1 c #232325",
"2 c #272728",
"3 c #272829",
"4 c #2A2B2B",
"5 c #3E2D21",
"6 c #3F3122",
"7 c #2E2F30",
"8 c #2F3031",
"9 c #333335",
"0 c #363738",
"q c #363839",
"w c #3B3B3C",
"e c #422D1E",
"r c #47301F",
"t c #422E21",
"y c #453224",
"u c #493425",
"i c #47352A",
"p c #4A3629",
"a c #4C392B",
"s c #523C2C",
"d c #533F30",
"f c #574132",
"g c #5B4635",
"h c #3F3F40",
"j c #3F4041",
"k c #424344",
"l c #464749",
"z c #47494A",
"x c #4B4B4D",
"c c #4E4E50",
"v c #4F5051",
"b c #535354",
"n c #575858",
"m c #5A5B5C",
"M c #646465",
"N c #757676",
"B c #7C7C7C",
"V c #848586",
"C c #868788",
"Z c #8A8A8B",
/* pixels */
"$$:*-*--=-%%--$%@$$%$%$$*#@@$@*@",
"$5gsfysu=suusd;u@t=t;a>$y*ee*>u@",
"*>gssys6;s>udsyy+e5teae$i:yr*;u$",
"*>fsfus>=s=pduty@;>t>a:$a>aa;ee$",
"*yfsuif>-deustty#=>u=u>$i5sg>5;$",
"*y6uuaay-seedtty$;:i%y5$utaayt=$",
"&ayyeaar-utisu5y*>;a5t5$yyatts%$",
"931,,111,oo#1111,,.X,X,,1o,o.1,,",
"kjwljh497<4hz099411wj444339ww941",
"mmMVBmjjjhjBVmkkw7hBBchw9kmBBbw8",
"bnMVBmfljhcBVmkh97kBBv099wmBNb97",
"9jjlj890989jcq04112hl41134wkw421",
"1341,<333<,2333,o,,,,XXX,,1,.ooo",
"$6&auarr2ay>:dtt&5a&y5>$t;auiys$",
"&:6aaurs;aty:a55*>i5yt>$yyitupu#",
"*>>usrra;siyta-5*;a:i5>*aad>pat@",
"$*>=usys-ia;55&-$5iyi5>$ttuyyyy$",
"$*>=eryf=it5:55$$ya>yy:$e>yyuyy+",
"$%-yrraf-5t;55*$&yi-ti*$e-eia>y+",
"XX<<o$oo..,<<,,,<8484124441o1 o,",
"139k0411117kh4428hjbz89wh97hk238",
"9wbBNb9879cBBk9hkxmZBchzjjvBBzhf",
"9wvBBb9900cBBh7hkkmCBl9qh8xBBxqh",
"334ww922324jw<1489wch3114<3qh7<<",
"oXXXX,.#oXXXXXo,1111ooXX<<o XoXo",
"*ty>a55d-*a5t:;*+e:=:aa&iif6a:>@",
"*uyyy55a*y55a->5+5=::su&iffia>r#",
"*ieyy&5y$5>5i*>5Oe=>yyy&ii6ayyy@",
";t>555$y%;>*5555+>yuyy:*yatuyyy@",
"-u;t55-i$*y$i5ya#tidy>**yu:y>u>@",
"-a>t5--u*;6&i>yi@iugyy-&ty-t*a:$",
";%$&%$%-*$$+&$**$$$:$%#$#&+*@&@@"
};
