/* XPM */
static char *result[] = {
/* columns rows colors chars-per-pixel */
"32 32 30 1 ",
"  c gray53",
". c #959595",
"X c #9A9A9A",
"o c gray61",
"O c gray62",
"+ c gray63",
"@ c gray64",
"# c #A5A5A5",
"$ c gray66",
"% c #AAAAAA",
"& c #ACACAC",
"* c #AEAEAE",
"= c #B1B1B1",
"- c #B2B2B2",
"; c #B4B4B4",
": c #B7B7B7",
"> c #B9B9B9",
", c #BBBBBB",
"< c #BCBCBC",
"1 c #C0C0C0",
"2 c #C1C1C1",
"3 c #C3C3C3",
"4 c #C5C5C5",
"5 c gray78",
"6 c #CACACA",
"7 c #CBCBCB",
"8 c #CDCDCD",
"9 c gray81",
"0 c gray82",
"q c gray83",
/* pixels */
"+&;><1>><3<111-%&;<12<>>33:,<<-=",
"=&>121,,,12,=$$-2379<<;,$$$=*$%$",
",;$%,674252>=;:-;=$%=;-%%*%+o#&;",
"1%:<;<<=##%&&=>-&$*-*%%=+@==**12",
":&@=;=@.$>>:,,==32222<=*:;>166<:",
"-&$;=&>:,>>;:,:2<=;>&&=;:=::--%*",
"111&<23231,<773:>:<>;;;=<6147<>4",
":,6<&286#$=<,,54;:421<2>#@->1353",
"44-#*=><:<>-=$%=;<--<<;:1;-,>,;-",
":<=>-$=,>377>>-%@-><#@%&&5,%%:<2",
"**=:,,2;--$%&$#=::$=<>;*&$%#ooo=",
"=&-;;<1>##$&+#*-#%::>;&:&#@=+#-=",
"2:;-42=+%*$=11>-22238<$-61<=:4>*",
"2353,<13;*-<;;164473*#-62679>&<6",
",$&<867795:;;,:;>:*#==>;97222;-=",
"=@=%-:<>+@*-***#O#==&1872135,<5,",
";21-:<::2,%%>*%@##$$&-;;<4;-:<=#",
"3267<<,,>,12=;:<<,11,>&&-**-*%$%",
"2,-;>;;&:>><554223,2q973<122<1::",
"2@=>&@&1%%;;*-12,;5963583,;*;:66",
"+#-22>#@$:=*::%$;##%=%+#$@+%,<=>",
":;;>>,<2,&<1,,*<<::<%@$%&=,,*;,<",
"452,=11222->082,><<<<<2:23>;<442",
"*=44:=:-#%%@-462=$,,;>11%#$%=$:,",
"<2;;:&+#@&&O$-$@%;,13*&$@$&&#X .",
"><,2@%$;1496*:<<,<<6;%&*=15414<:",
"564704,676332:%,<12,,<3583211136",
".O==-;65:-=-$@##++@$%-<-&=&-#*:<",
"&o&%22#@-<32772<=*#*=&@+%==->>@+",
"<<3032<:*:;62277<<6622<,$;15<>1,",
"2:Oo%%%->>-:6631<2=&,><,2,%$-1<=",
"@#-=**<2;*-<><,:#$:>%;<>$$;>;*&*"
};
