/* XPM */
static char *_578656666930[] = {
/* columns rows colors chars-per-pixel */
"18 42 2 1 ",
"  c black",
". c None",
/* pixels */
"                  ",
"                  ",
"                  ",
"                  ",
"                  ",
"                  ",
"      ......      ",
"      ......      ",
"      ......      ",
"      ......      ",
"      ......      ",
"      ......      ",
"      ......      ",
"      ......      ",
"      ......      ",
"      ......      ",
"      ......      ",
"      ......      ",
"............      ",
"............      ",
"............      ",
"............      ",
"............      ",
"............      ",
"                  ",
"                  ",
"                  ",
"                  ",
"                  ",
"                  ",
"............      ",
"............      ",
"............      ",
"............      ",
"............      ",
"............      ",
"                  ",
"                  ",
"                  ",
"                  ",
"                  ",
"                  "
};
