/* XPM */
static char *_c99adab67854760e358a39c00269d32[] = {
/* columns rows colors chars-per-pixel */
"32 32 221 2 ",
"   c #000101",
".  c #0E0E13",
"X  c #110A17",
"o  c #1C1819",
"O  c #291616",
"+  c #2A261B",
"@  c #34281A",
"#  c #32341C",
"$  c #393A19",
"%  c #273116",
"&  c #1D1B20",
"*  c #252427",
"=  c #372B26",
"-  c #3C3A2A",
";  c #383626",
":  c #2E2A32",
">  c #2F2839",
",  c #332E3C",
"<  c #362E34",
"1  c #35343A",
"2  c #3B353C",
"3  c #3D393F",
"4  c #2E3224",
"5  c #402F1D",
"6  c #483F1E",
"7  c #453A24",
"8  c #433C2A",
"9  c #473626",
"0  c #4A3D38",
"q  c #543A32",
"w  c #3D421F",
"e  c #3E4225",
"r  c #3E4229",
"t  c #44412A",
"y  c #4C422D",
"u  c #474929",
"i  c #514C2E",
"p  c #525121",
"a  c #4E4230",
"s  c #4C443D",
"d  c #4D4C39",
"f  c #494B33",
"g  c #5C4D35",
"h  c #5B4A3B",
"j  c #554936",
"k  c #55513D",
"l  c #5D543D",
"z  c #5C5537",
"x  c #4F5539",
"c  c #645D31",
"v  c #67583B",
"b  c #6B663A",
"n  c #73683A",
"m  c #6B7335",
"M  c #75743A",
"N  c #7A7C3C",
"B  c #767032",
"V  c #6C6C2A",
"C  c #535219",
"Z  c #273041",
"A  c #363445",
"S  c #393544",
"D  c #3E3B43",
"F  c #39374A",
"G  c #352D45",
"H  c #433D44",
"J  c #433D4A",
"K  c #4D3E4C",
"L  c #483F45",
"P  c #413E53",
"I  c #593A4C",
"U  c #3C4154",
"Y  c #2C6667",
"T  c #454046",
"R  c #4A4346",
"E  c #45424B",
"W  c #4A444B",
"Q  c #4D494F",
"!  c #494C44",
"~  c #554A47",
"^  c #554B4A",
"/  c #5B534E",
"(  c #585546",
")  c #444353",
"_  c #4B4651",
"`  c #4E4B52",
"'  c #4C4A58",
"]  c #49465A",
"[  c #514C53",
"{  c #514D59",
"}  c #584E56",
"|  c #555156",
" . c #55525B",
".. c #5A545B",
"X. c #5D585E",
"o. c #5E5752",
"O. c #4C514F",
"+. c #645644",
"@. c #61534C",
"#. c #655C49",
"$. c #755C42",
"%. c #645A57",
"&. c #5B614A",
"*. c #6C644B",
"=. c #696645",
"-. c #736545",
";. c #786946",
":. c #7C7245",
">. c #7B7943",
",. c #757342",
"<. c #6A625A",
"1. c #6B6551",
"2. c #776957",
"3. c #7B7657",
"4. c #6C755A",
"5. c #5D5C63",
"6. c #575768",
"7. c #615C63",
"8. c #6C5861",
"9. c #6A656C",
"0. c #676469",
"q. c #746B64",
"w. c #796B67",
"e. c #7B7765",
"r. c #696973",
"t. c #746D73",
"y. c #786E74",
"u. c #757279",
"i. c #7D7578",
"p. c #816F3D",
"a. c #806D4D",
"s. c #827943",
"d. c #867348",
"f. c #937C4B",
"g. c #947749",
"h. c #887B54",
"j. c #8B7456",
"k. c #826E65",
"l. c #897664",
"z. c #967E6B",
"x. c #857975",
"c. c #798241",
"v. c #7F816C",
"b. c #768077",
"n. c #968549",
"m. c #8D8558",
"M. c #9C8553",
"N. c #978656",
"B. c #86804C",
"V. c #A48B4A",
"C. c #B7974A",
"Z. c #A7904D",
"A. c #868368",
"S. c #968A67",
"D. c #99916A",
"F. c #8A8379",
"G. c #918272",
"H. c #9B8D71",
"J. c #9A8B7B",
"K. c #968679",
"L. c #A89368",
"P. c #A8967A",
"I. c #AD9368",
"U. c #BBA67B",
"Y. c #C6A76A",
"T. c #CCAE73",
"R. c #C5A670",
"E. c #D3B674",
"W. c #CDB37A",
"Q. c #7C7A82",
"!. c #817C84",
"~. c #8D7C86",
"^. c #7B8888",
"/. c #7A8994",
"(. c #898987",
"). c #968C84",
"_. c #988A86",
"`. c #898C97",
"'. c #8E9999",
"]. c #91908B",
"[. c #AC9C8E",
"{. c #A79A96",
"}. c #B29D9B",
"|. c #A28F8B",
" X c #A6A597",
".X c #B3A39B",
"XX c #BCA89F",
"oX c #949CA2",
"OX c #8D97A1",
"+X c #A19CA3",
"@X c #90A1AB",
"#X c #99A7B5",
"$X c #B7A5A6",
"%X c #BAB1AA",
"&X c #A1A9BB",
"*X c #A6B1BB",
"=X c #AEA3A7",
"-X c #CAB598",
";X c #CBB6A8",
":X c #C2AEA3",
">X c #9FB5C4",
",X c #A4B5C5",
"<X c #ABBAC5",
"1X c #A5B9C8",
"2X c #ACBBCA",
"3X c #A7B5C5",
"4X c #B2BECC",
"5X c #A3AFC7",
"6X c #AEC1CE",
"7X c #B3C1CD",
"8X c #AFC0D0",
"9X c #B4C3D2",
"0X c #BCCCDC",
"qX c #B9CADA",
"wX c #BBD1DF",
"eX c #BDCEE0",
"rX c #BFD1E5",
"tX c #C4D2DF",
"yX c #C7D9E8",
"uX c #D6E9F8",
"iX c #E1F2F9",
/* pixels */
"*X<X2X2X2X2X2X2X<X1X1X<X1X,X1XyXyXqX5X,X>X,X,X,X>X,X1X<X3X,X>X#X",
"4X4X4X4X4X4X4X4X7X7X9X7X7X9XyXoX5.OXyX2X4X6X7X7X6X6X6X7X4X<X2X2X",
"3X2X2X<X4X4X4X4X4X7X7X7X9XyXu.      @XyX6X<X<X6X6X6X2X2X1X3X1X3X",
"9XqXqXtXeX0XtXtXwXtX0XqXyXiX*   Y   : uX8X8X8X8X7X9X6X6X9X4X9X3X",
"/.`././.Q.(.'.oX'.oX#X7X(.(.!       5.*X6X*X*X#X@X*X#X#X5X*X X4.",
"l +.l +.s 8 7 7 7 8 ( ! 4 * O.E T o.e.<.&.&.l.<.k 1.b.(.A.o.e e ",
";.;.f.j.y 8 7 y d k j 4 j ;.l.^.x.).D.N.b v n S.-Xb q.{.b 6 t ; ",
"4 + k z ; - - ! ( # % x v m.(.%.X.0.D.B.I.3.; l 4.e - h a t t - ",
"o   - k d d # d ( (.e.u &.F.5.%.<.' i.S.n.z 4 4 # u r r x u - - ",
"y 7 *.*.i f ! ( d %X%X2.F.r.U q.q.U  .).D.-.~ t $ e u e r f i l ",
";.a.A.3.z 3.i.2.3.e.G.).u.6.' k.e.| ) 5.(.).J.v.4.*.b b M d.g.g.",
"h g n c b z =.,.B.m.G.u.{ ' / l.e.o.) ) 5.].D.3.m.D.N.M.M.M.g.g.",
"b $.g v c C c >.m.H.y.< ` ' @.S.q.%.]  .S 7. XL.>.M B >.M.f.d.:.",
"h.*.c c b n h.P._.i.) E } ) @.D.2.@.F D { , 7.=X.XD.s.c.M n :.d.",
"8 + $ C M D.P.x.y.' F 5...J o.P.2.h A : Q E 1 9.{.$X[.B.m m M s.",
"u i n ,.J.}.<.t.6.J [ %.` ) o.U.k.h ] W { ' S J 9.F..X[.S.c.B b ",
">.p.p.|.}./ 9.u.D K 6.%.Q ) @.W.k.s { W ` ..W H W 0.q..X.XS.N M ",
">.M H.|./ 5.!.H ) [ 7.[ _ F 1.W.k.0 [ _ K } ` E S ' 0.<.{.$XJ.>.",
"v l.z.~ ..(.] H _ W 7._ [ F *.E.w.j / E W _ 5.J E 1 7.0.%.{..XJ.",
"G.k.R } `.{ D _ ` 9.W [ [ A ;.E.y.8 o.F Q H _ { T E A r.5.( ).{.",
"j.s { (...3 ` L W 0.` ` _ A 2.E.x.9 #.F W ` { 8.L E P F 6.8.[ K.",
"~ W `.7.1 ` Q W ..T T [ _ A a.T.~.9 @.J Q U Z P U ` I G > %.r.R ",
"W ].9.< Q Q H 7.Q.L _ [ W A d.T.x.5 ~ J R K J 0 w.9.* . X . 7.y.",
"(.y., K W E T [ { H [ [ J A f.T._.= h K 0 0 ^ O 2 W D 0 H S < 9.",
"y.1 H Q W H D W T W ` Q H F n.R.{.= g [ D & o o . : W H W W S 1 ",
"D H W W H W r.} T W O.Q L F V.Y.{.= j / L T ` R W ` T 3 H L H 3 ",
"H T Q T 1 t.+XH H ` Q T L J Z.Y.}.> a #.J L K W H 2 0.t.2 H W H ",
"H W W H H ..[ H W [ W W D E Z.I.XXG 9 #.D J W Q L H | i.H D H R ",
"T W H H W L H W R [ L T H I V.L.:XA @ $.F T T Q K H H H R J D H ",
"R H H T Q Q W H Q Q K W D ~ C.I.;XJ @ $.J E H R R H H H W H H H ",
"T H H T W L H L Q Q K J F +.C.I.;XQ O $.K H H L Q H H 0 L L H H ",
"0 3 R t.Q L H Q Q W L H H *.C.z.;X/ O v [ H H L R R H H H L H H "
};
