/* XPM */
static char *_696985ba03541cccb1df4e392700873[] = {
/* columns rows colors chars-per-pixel */
"32 32 200 2 ",
"   c #010101",
".  c #0A0B0C",
"X  c #090A05",
"o  c #0E100F",
"O  c #10100E",
"+  c #0E0C13",
"@  c #140615",
"#  c #120D16",
"$  c #140E1A",
"%  c #1A0D1A",
"&  c #131216",
"*  c #181816",
"=  c #15131B",
"-  c #1B131B",
";  c #1B1B1E",
":  c #1A1617",
">  c #211519",
",  c #1D0E24",
"<  c #161321",
"1  c #1B1522",
"2  c #1C1A24",
"3  c #1D1B2A",
"4  c #171926",
"5  c #250E28",
"6  c #231327",
"7  c #211D2C",
"8  c #291A2A",
"9  c #22142C",
"0  c #271633",
"q  c #291534",
"w  c #221E30",
"e  c #2A1A34",
"r  c #2E1F3B",
"t  c #371F37",
"y  c #1E222D",
"u  c #24222F",
"i  c #2B2B2A",
"p  c #242333",
"a  c #2A2836",
"s  c #26253A",
"d  c #2A253C",
"f  c #272A3E",
"g  c #2B2B3D",
"h  c #272737",
"j  c #34243D",
"k  c #3B3A3D",
"l  c #2D1D41",
"z  c #381E41",
"x  c #2B2642",
"c  c #2D2C43",
"v  c #2E2B48",
"b  c #332644",
"n  c #392544",
"m  c #312D44",
"M  c #36254A",
"N  c #3B264C",
"B  c #332C4C",
"V  c #3B2A4E",
"C  c #2F314A",
"Z  c #2F3044",
"A  c #313246",
"S  c #34334C",
"D  c #34384C",
"F  c #39374F",
"G  c #322C53",
"H  c #3B2C53",
"J  c #382658",
"K  c #3C2B5B",
"L  c #382752",
"P  c #363552",
"I  c #3A3554",
"U  c #363852",
"Y  c #3B3A54",
"T  c #3C345C",
"R  c #3D3C5A",
"E  c #3E3561",
"W  c #3F316C",
"Q  c #452758",
"!  c #43325C",
"~  c #413B5C",
"^  c #413253",
"/  c #492766",
"(  c #443564",
")  c #433D63",
"_  c #4E3867",
"`  c #4A3C6C",
"'  c #493667",
"]  c #523E6F",
"[  c #4C3972",
"{  c #3C415B",
"}  c #3E4262",
"|  c #484846",
" . c gray28",
".. c #42415E",
"X. c gray37",
"o. c #454363",
"O. c #494466",
"+. c #474866",
"@. c #4A4967",
"#. c #464069",
"$. c #4B446B",
"%. c #4C4A6B",
"&. c #50456F",
"*. c #524C6D",
"=. c #4D4473",
"-. c #4E4C72",
";. c #554573",
":. c #544D73",
">. c #584C76",
",. c #544D7B",
"<. c #5A4C7B",
"1. c #57467E",
"2. c #555375",
"3. c #5A5275",
"4. c #5B547B",
"5. c #5D597D",
"6. c #575677",
"7. c #605F64",
"8. c #62557E",
"9. c #625A7C",
"0. c #635674",
"q. c #6E6E6D",
"w. c #70716C",
"e. c #777675",
"r. c #5B3B81",
"t. c #5D4485",
"y. c #5F5780",
"u. c #5D5A80",
"i. c #604685",
"p. c #625684",
"a. c #645C84",
"s. c #6A5983",
"d. c #705E88",
"f. c #676182",
"g. c #6B6484",
"h. c #6D648A",
"j. c #726485",
"k. c #72638D",
"l. c #726A8D",
"z. c #7C6E8C",
"x. c #7A718D",
"c. c #756A92",
"v. c #7C6C92",
"b. c #7F7195",
"n. c #7F7899",
"m. c #83728D",
"M. c #807E81",
"N. c #806F9A",
"B. c #827493",
"V. c #837499",
"C. c #86799A",
"Z. c #8C7C9D",
"A. c #887897",
"S. c #8C7CA2",
"D. c #8477A2",
"F. c #8E829E",
"G. c #91839D",
"H. c #9C9E9B",
"J. c #898987",
"K. c #8E80A4",
"L. c #9585A9",
"P. c #9D8DAE",
"I. c #9082A5",
"U. c #9D91AC",
"Y. c #A29EA3",
"T. c #A393A7",
"R. c #A494B2",
"E. c #A99BB9",
"W. c #A5A4A6",
"Q. c #AEB0AD",
"!. c #B2B1AF",
"~. c #AFA3B9",
"^. c #B2A4BC",
"/. c #B6AABA",
"(. c #B1B1B1",
"). c #B5B4BA",
"_. c #B7A9C0",
"`. c #C1B4CB",
"'. c #C5B8CA",
"]. c #C7B8D2",
"[. c #D1BFD7",
"{. c #CAC3D5",
"}. c #D3C9D6",
"|. c #D4CBDC",
" X c #DCDAD8",
".X c #C9C4CB",
"XX c #E0DFDD",
"oX c #DDE0D9",
"OX c #D9CCE5",
"+X c #DDD7E5",
"@X c #E3D4E8",
"#X c #E6D9EB",
"$X c #E9E4E4",
"%X c #EAEAE7",
"&X c #E5E5E6",
"*X c #EDE6F2",
"=X c #FCEDFE",
"-X c #F3E7F6",
";X c #FEFEFE",
":X c #F7F5F7",
/* pixels */
"+ + = = * & = 4 h f h a g p p h a g g h p u 3 3 7 1 = ; = & . & ",
"= = $ & + = y f f f A D Z c A A Z D D Z g d a h 3 1 ; 2 2 = . X ",
"$ = @ $ < y Z c f S R F A Y Y C c A F A c m A c a p 2 ; 2 & . . ",
"& @ # $ f C Z c A Y Y U D C S P C A C C x d g v c m u 7 = = = + ",
": - $ p S P C I R Y @.R Y Y o.@.} } o.o.{ R P B x m d p 3 3 2 = ",
": - 3 c R S I o.~ O.O.%.5.f.9.5.p.p.p.4.2...R ~ v f c f h p 2 = ",
"- - 7 m Y Y ~ I { 2.8.l.j.x.F.F.I.C.d.8.4...U R S c d s a u 2 = ",
"- 3 h F ~ ..~ ..6.g.v.Z.'.;X;X;X;X;X+XU.9.5.2.} I m f c a u < = ",
"8 b B D { { %.g.b.z.(.;X;X(.e.X.q.H.%X;X}.m.9.6.%.Y m f h p 7 - ",
"t V P Y { +.f.n.Z.}.;XW.;           . e.;X*XB.3.2.%.~ S p p 7 2 ",
"Q ' ( o.#.5.x.C..X;Xw.                  k ;X*Xz.*.3.O.~ B w w a ",
"/ r.t.] $.l.K.~.;XJ.                       .;X`.g.*.>.` P d s a ",
"/ [ i.;.8.D.U.:X X                          Y.;XG.3.,.=.I g s 8 ",
"/ i.[ ;.k.S.E.;Xq.                          i ;X^.h.,.-.I Y c 3 ",
"N ] <.>.g.S.].:Xi                             {.#Xm.,.4.{ C f 2 ",
"n ! ;.>.g.I.@X$X.                             Y.=XB.4.u.+.Z s 3 ",
"j ^ $.=.c.L.#X XX                 .           Y.=XB.3.u.$.G C d ",
"n V $.4.h.S.OX:X*                             ).-XB.:.3.=.U B b ",
"j b ) ,.a.n.`.;X|                           . &X[.z.:.$.O.B g d ",
"b x G ) y.c.R.;X(.                          7.;XR.d.O.R o.x d 7 ",
"M G G T *.c.C.|.;Xk                         XX$XC.3.o.{ R A p 1 ",
"v G ( ` o.9.v.P.;X:X&                     Q.;XT.g.@.@.{ U c 7 1 ",
"r B E [ =.$.j.C.^.;X%Xk               O (.;X_.N.*.%.%.U P c w 1 ",
"e H K W 1.&.*.k.S.^.;X;XW.| O   . i x.%X;X/.A.p.@.*.o.P A s 3 6 ",
"q N L J ( =.#.%.l.K.R.OX;X;X$X XoX:X;X@XT.m.9.%.*...U U v w 6 - ",
"q 0 N K K E ` $.$.k.C.P.E.].@X#X+X{.E.Z.j.0.*.-...Y D Z f 3 3 - ",
"5 q V ( ( L ( ,.$.) >.k.N.S.L.L.I.n.z.a.3.:.*.) ~ ~ g h 3 $ $ - ",
"5 0 r M V K ( [ =.=.$.&.*.9.p.s.s.9.3.4.5.:.) I F g a p = $ $ $ ",
", , 9 0 r J ' [ ' ` O.O.O.O.*.:.*.;.4.4.;.~ I P m s s w = + # # ",
", % , 6 r M ! _ ' ! ~ ..T ~ %.%.o.o.=.) T I I S s p p 4 = + + & ",
"# @ @ 8 j w n N Q n H I #.) ) ) ~ R P S B B x d 7 7 2 = = # + # ",
"> > > % % 6 e j j n V B T E T T H B v x x d p w 7 7 4 = = < # = "
};
