/* XPM */
static char *f410b6e35e764643bb780f880503b032[] = {
/* columns rows colors chars-per-pixel */
"32 32 231 2 ",
"   c #02061B",
".  c #00111F",
"X  c #01000A",
"o  c #021324",
"O  c #0B1D2B",
"+  c #0D1A30",
"@  c #11222E",
"#  c #18252C",
"$  c #0E2838",
"%  c #122534",
"&  c #142A37",
"*  c #1B2A37",
"=  c #1B2D3B",
"-  c #13293A",
";  c #1D333D",
":  c #2B353E",
">  c #29353F",
",  c #35383E",
"<  c #232937",
"1  c #0E2C49",
"2  c #152E44",
"3  c #1B3345",
"4  c #1D354A",
"5  c #1A3549",
"6  c #153753",
"7  c #233341",
"8  c #21364B",
"9  c #283947",
"0  c #333B43",
"q  c #353F49",
"w  c #223B52",
"e  c #293B54",
"r  c #4A3F4D",
"t  c #35444C",
"y  c #3A4146",
"u  c #2B415A",
"i  c #2F4052",
"p  c #394757",
"a  c #3E555A",
"s  c #2E4664",
"d  c #334B6A",
"f  c #394B67",
"g  c #314F71",
"h  c #39567B",
"j  c #45484C",
"k  c #534B46",
"l  c #444B53",
"z  c #494B53",
"x  c #534F57",
"c  c #4A515A",
"v  c #585959",
"b  c #66595A",
"n  c #755E57",
"m  c #68645A",
"M  c #7C715B",
"N  c #495666",
"B  c #525964",
"V  c #575C65",
"C  c #425779",
"Z  c #685E64",
"A  c #755C67",
"S  c #685A71",
"D  c #5B697A",
"F  c #5E626B",
"G  c #606162",
"H  c #6C6A69",
"J  c #686667",
"K  c #776666",
"L  c #7C746D",
"P  c #777168",
"I  c #696C76",
"U  c #7A6A73",
"Y  c #7D7475",
"T  c #787676",
"R  c #876B6B",
"E  c #81796F",
"W  c #86766C",
"Q  c #93756E",
"!  c #866C76",
"~  c #827572",
"^  c #8B7C79",
"/  c #877876",
"(  c #977B79",
")  c #A47972",
"_  c #8A8274",
"`  c #898279",
"'  c #93847C",
"]  c #9B847B",
"[  c #98877B",
"{  c #8D8467",
"}  c #A38479",
"|  c #A4897A",
" . c #A7937C",
".. c #385B87",
"X. c #386596",
"o. c #455E87",
"O. c #4D6C8D",
"+. c #4A698E",
"@. c #6E7883",
"#. c #8A7A82",
"$. c #947C85",
"%. c #778D9F",
"&. c #72868E",
"*. c #4E9EA9",
"=. c #62ABB2",
"-. c #6DA3CF",
";. c #77CAC9",
":. c #8B8584",
">. c #8C8B83",
",. c #89858A",
"<. c #9A8D84",
"1. c #958886",
"2. c #9A9181",
"3. c #98908B",
"4. c #868D95",
"5. c #9A8C94",
"6. c #989796",
"7. c #899392",
"8. c #A78989",
"9. c #B28C86",
"0. c #AA9384",
"q. c #AC948A",
"w. c #A79988",
"e. c #B2968B",
"r. c #B29A8D",
"t. c #B69A8C",
"y. c #A49C9B",
"u. c #A99797",
"i. c #B39593",
"p. c #BA9C93",
"a. c #B79C95",
"s. c #A98E97",
"d. c #B5A58C",
"f. c #A9A39A",
"g. c #BBA296",
"h. c #BEAC99",
"j. c #BAA799",
"k. c #B9B29D",
"l. c #AAA28D",
"z. c #8796A9",
"x. c #909CA8",
"c. c #B499A0",
"v. c #9AA6A9",
"b. c #9DB3B4",
"n. c #9AB5BD",
"m. c #8AAAB2",
"M. c #A8A4A7",
"N. c #B4A8A7",
"B. c #B6B1AC",
"V. c #ACB4B2",
"C. c #B7B7B6",
"Z. c #A5A8B1",
"A. c #C19D94",
"S. c #C99E8B",
"D. c #C3A799",
"F. c #C9B89D",
"G. c #C59FAE",
"H. c #C9ADA1",
"J. c #C5A8A5",
"K. c #C8BAA6",
"L. c #D2B2A6",
"P. c #C4B9B3",
"I. c #D2B8B3",
"U. c #9AC8BE",
"Y. c #ACC3BB",
"T. c #CBC5AB",
"R. c #C6C4BD",
"E. c #D7CAB8",
"W. c #D5D5BB",
"Q. c #E3D5BA",
"!. c #89AAC5",
"~. c #99B7C5",
"^. c #90AED0",
"/. c #8ABADB",
"(. c #8EB6C2",
"). c #B8BDC5",
"_. c #A7B9C7",
"`. c #87C4CB",
"'. c #94CDD1",
"]. c #BAC4C8",
"[. c #B9CADA",
"{. c #A7D9DC",
"}. c #B2CFCF",
"|. c #9CE3DA",
" X c #B4E9DD",
".X c #AFD0EF",
"XX c #BED7E6",
"oX c #A1CAE8",
"OX c #ACE7E3",
"+X c #BAEFEB",
"@X c #C9C7C5",
"#X c #D8CBC6",
"$X c #CDD0C7",
"%X c #CBD3D9",
"&X c #D9D9D5",
"*X c #CBCED8",
"=X c #E4D9C6",
"-X c #E5DCD7",
";X c #D7E3DB",
":X c #CDEAD4",
">X c #EDE8CC",
",X c #EFEADA",
"<X c #C4D9E5",
"1X c #CDE2EC",
"2X c #C6EAE6",
"3X c #D7E7EA",
"4X c #C5E5F7",
"5X c #D9E9F3",
"6X c #C9F7F4",
"7X c #DEF4F2",
"8X c #D4FAFA",
"9X c #CEF5E8",
"0X c #E2EBE7",
"qX c #F1EDE7",
"wX c #E2F0EB",
"eX c #E7F5E4",
"rX c #FFFEE9",
"tX c #F9FAE8",
"yX c #E4EEF2",
"uX c #F4EBF2",
"iX c #E4F4F4",
"pX c #E8F9F5",
"aX c #EDF5FB",
"sX c #E5FBFB",
"dX c #EBFDFC",
"fX c #E8F5F5",
"gX c #F3F5F4",
"hX c #F3F6FA",
"jX c #F3FBFC",
"kX c #FEFFFE",
"lX c #F8FCF5",
/* pixels */
"b.b.b.b.b.n.b.n.v.[ m y 0 > > > > > t v V x.iXfX7X7XgXgXgXz.~.gX",
"eX0X0X0XwXeXwX7XW.W : * & : , 0 0 0 7 > 9 c }.lXkXkXkXkXkX!.}.kX",
"kXkXkXkXkXkXkXtX{ y O : M E _ _ ` ' ' ' J < f 1XkXkXkXkXkX~.XXkX",
"kXkXjXlXkXkXkXB.k . y F.d. .2.l.p.g.g.h.E.:.o %.kXkXkXkXkX~.<XkX",
"kX8XOX2XgXlXkX_ # O Q.rX .0.r.t.a.a.a.g.K.rXF 1 aXkXkXkXkX[.3XkX",
"9X|.|.|. X;X,Xm X 3.kXD.| w.r.t.p.p.r.g.j.rX0X+ !.kXkXkXkX1XfXkX",
":X$X:X6X2X X:Xj < rX>Xd.q.e.q.t.e.0.e.D.L.#XkXI O.kXkXkXkXyXhXkX",
"U.eXwX7X2X6X6Xm E rXW.F.t.a.p.p.r.r.D.I.I.E.lXC.O.kXkXkXkX5XhXkX",
"=.$XpXpXsXdXkX>.w.tXT.P z k ~ g.D.H.<.v V I @X&X%.jXkXkXkX5XhXkX",
"*.=.pXeXsX8XdX>.l.>Xv 0 0 0 v 0.D.H.^ p c B I ).n.hXkXkXkX5XaXkX",
"`.0XdXpXsX+X8X6.T.k.k / ] R K Q 0.L.<.R $.a.6.].3XhXkXkXkX1XjXkX",
"{.iX3X XOX'.jXP.W.h.n b j b K n ( A.! c p I 6.-XfXkXkXkXkX1XhXkX",
" X;.'.-.;.'.kX$XT. .n v j m Z K | H.( A U ,.y.#X3XkXkXkXlXXXjXkX",
"lX|.;.{.|.9XjX;XT.d.d.} Q W R Q 9.H.L.i.s.a.P.#X3XhXkXkXlX<XkXkX",
"kXpXOX9X6XdXkXE.E.Q.T.| ) } } q.9.I.I.J.J.J.I.-X&XuXkXkXlX5XkXkX",
"pXjX7XpXiXkXkXS.F.Q.S.0.S.9.R ( A.J.u.a.J.I.#X&X#XuXkXkXhX4XkXkX",
"jXkXyXkXkXkXkXL.d.K.r.9.p.) b x ~ ! ! s.i.G.#XP.*XkXkXkXhX1XkXkX",
"kXkXkXkXkXkXkX-X .2._ 9.} K Z A J U $.3.4.i.P.Z.*XkXkXkXhX5XkXkX",
"kXkXkXkXkXkXkXuX| _ L [ L Z U ! ( 8.s.1.@.y.N.Z.0XkXkXkXaXXXkXkX",
"kXkXkXkXkXkXkXlXR.{ P ] / r z H #.5.,.S #.c.C._.hXkXkXkXaX.XkXkX",
"kXkXkXkXkXkXkXkXkXl.n ` ( R n A ! #.$.G.J.N.).*XkXkXkXkXaX.XkXkX",
"&XgXkXkXkXkXkXkXkXY.m E E [ ( ! U #.c.I.c.Z._.5XkXkXkXkXaX8XkXkX",
"# ].kXkXkXkXkXkXkXV.b P J L ( ! S #.i.u.4.x.[.kXkXkXkXkXjXsXkXkX",
"o V.gXkXkXkXkXkXkX].4.m G I Y / $.#.5.5.4.%.<XkXkXkXkXkXsX4XkXkX",
"O v.eXtXlXkXkXkXkXY.6.E a c F E #.,.,.I D z.%X!./.dXkXkXfXoXkXkX",
"o v.eXlXkXkXkX@X4.a >.d.v p t c B B N D 4.].@X..X.-./.^.!.m.*X3X",
"  v.lXeX$X7.p # . ; K.k.E H G B N B T v.C.@XC.h ..X.X.X...o...+.",
"@ &.&.y @ . & 3 - t h.D.^ L T E >.3.u.M.B.#XB.d g h h C C C C C ",
"a t @ = ; 9 > & 3 3 2.F.1.` U H Y :.3.y.B.=X,.6 d g d d c f d f ",
"> ; 7 > ; 7 ; & 3 2 I h.2.<.` ~ Y ,.6.N.E.j.i 6 e s e e e u e s ",
"$ & & $ $ & ; - ; 3 4 H ' 2.<.` 1.<.N.H.u.q 1 4 w e w 8 e e e e ",
"$ % & % % & ; - 3 ; $ - t J E ~ P L L V 2 $ 3 3 8 6 8 4 7 8 e e "
};
