/* XPM */
static char *a079e9e3becd419dc20aafca6e253166[] = {
/* columns rows colors chars-per-pixel */
"32 32 168 2 ",
"   c #0C611D",
".  c #1A6A18",
"X  c #216F1B",
"o  c #2D7716",
"O  c #1F6F32",
"+  c #1F7133",
"@  c #1A6A28",
"#  c #206F2E",
"$  c #21702F",
"%  c #2E7629",
"&  c #257222",
"*  c #397B2A",
"=  c #216F31",
"-  c #227131",
";  c #367C33",
":  c #387C32",
">  c #64005F",
",  c #53016D",
"<  c #5A0372",
"1  c #5E1076",
"2  c #680361",
"3  c #770E6C",
"4  c #7A116D",
"5  c #77126E",
"6  c #64117C",
"7  c #6D1B7F",
"8  c #66147B",
"9  c #781373",
"0  c #CA0B02",
"q  c #C80705",
"w  c #CB1102",
"e  c #CD1A0A",
"r  c #CC1408",
"t  c #D01F0F",
"y  c #CC1C1B",
"u  c #CA1712",
"i  c #D01C1D",
"p  c #CF2212",
"a  c #CF271A",
"s  c #CF2D1E",
"d  c #D12D1E",
"f  c #D12418",
"g  c #D5380D",
"h  c #CF2B21",
"j  c #D12D21",
"k  c #CF3221",
"l  c #D23A2D",
"z  c #CF3035",
"x  c #D33F35",
"c  c #D9461A",
"v  c #DB5126",
"b  c #DB5229",
"n  c #D95A31",
"m  c #DC4C27",
"M  c #D85649",
"N  c #D8655A",
"B  c #DC7A73",
"V  c #DB7A7A",
"C  c #3D8216",
"Z  c #3D8218",
"A  c #408125",
"S  c #4F8D38",
"D  c #528C36",
"F  c #558C38",
"G  c #538E62",
"H  c #F38D1F",
"J  c #F2912B",
"K  c #EF8732",
"L  c #F08533",
"P  c #F08833",
"I  c #EF9136",
"U  c #F19235",
"Y  c #F49E36",
"T  c #F29F39",
"R  c #F19238",
"E  c #F4A036",
"W  c #F4A03A",
"Q  c #FFEA3E",
"!  c #8BB375",
"~  c #DA847D",
"^  c #EEE242",
"/  c #FCEC4F",
"(  c #FDEF44",
")  c #FDF14E",
"_  c #FEEE50",
"`  c #FDF151",
"'  c #F0E974",
"]  c #1F1AB5",
"[  c #241FB9",
"{  c #6D1B81",
"}  c #0045AA",
"|  c #0F55AA",
" . c #195DAB",
".. c #1F61AB",
"X. c #2062AB",
"o. c #343BC6",
"O. c #3339C6",
"+. c #0135FC",
"@. c #003AFB",
"#. c #0442F1",
"$. c #0344FC",
"%. c #084AFF",
"&. c #0B49F9",
"*. c #0E52F5",
"=. c #015BFF",
"-. c #1051F5",
";. c #1152F9",
":. c #1D58F0",
">. c #255DF2",
",. c #386CF3",
"<. c #4053D3",
"1. c #4F7CF3",
"2. c #8F559F",
"3. c #984387",
"4. c #9D6FAD",
"5. c #9A77A1",
"6. c #A172A9",
"7. c #BB7AA4",
"8. c #738EE9",
"9. c #779AFF",
"0. c #85AE82",
"q. c #93B992",
"w. c #84A8B6",
"e. c #DD8B8B",
"r. c #DD9390",
"t. c #DFA099",
"y. c #E5A9A3",
"u. c #E7B2AC",
"i. c #E3BAB4",
"p. c #B9D1B9",
"a. c #E3C0BC",
"s. c #BD9DC6",
"d. c #BCADC0",
"f. c #9CB6F3",
"g. c #C5AACD",
"h. c #CAB6CF",
"j. c #BFD4CF",
"k. c #B8C9F9",
"l. c #CADCC5",
"z. c #D8D7D6",
"x. c #D9DAD6",
"c. c #DAD7D8",
"v. c #DAD9D9",
"b. c #D7D8D8",
"n. c #EDC9CB",
"m. c #EADAD7",
"M. c #F0D8D4",
"N. c #DFE0DB",
"B. c #F3E1DF",
"V. c #D5DDF2",
"C. c #C8D5F7",
"Z. c #DFE6F8",
"A. c #EEEEED",
"S. c #F0EFEE",
"D. c #F6E6E5",
"F. c #ECF2EB",
"G. c #F2F1EF",
"H. c #EFEEF1",
"J. c #F1EFF0",
"K. c #E9F1F3",
"L. c #F6F6F6",
"P. c #F9F6F7",
"I. c #F6F9F5",
"U. c #FAF9F6",
"Y. c #F6F6F9",
"T. c #F9F7F9",
"R. c #F7F9F9",
"E. c #FAFBFA",
/* pixels */
"A.F.L.P.A.i.e.B V r.a.A.L.A.G.L.A.S.J.L.T.m.t.~ B ~ y.m.Y.L.A.A.",
"T.E.T.y.x r 0 0 0 0 e M u.E.E.E.Y.T.E.M.N f 0 0 0 0 r k B D.E.T.",
"E.P.N 0 e d s s j d a r w B P.E.E.E.u.h 0 p j d d d d t 0 l n.E.",
"E.N 0 f d s s s j d d d d w N E.E.y.0 p j d j j s h j j d e f D.",
"e.q i y i y y y y y y y u y q V n.q u i y i y y i i y i y y q z ",
"v v v b v v v v b b v b b v b g n b v v b v v b v v v b v v b c ",
"H Y E W W E E W W Y Y Y Y T W E J W Y E E W W Y E E E W W W W W ",
"U U U U U U U U U U U U U U I I U U U U U U U U U U U U U U U R ",
"U U U U I I I I I I I I I I I I I I I I I I I I U U I I I I I I ",
"L K K K K K K K L K L L K K K K K K K K K K K K K K K K K K K K ",
"T T T T T T T W T T T T T T T T T T T T T T T T E W T T T T T T ",
") _ ) / ` _ ) ` ` ) ` / / ` ` _ ) ) ` ` _ ) ` ` / ) ) ` / / ` ) ",
"/ ) _ ` ) _ _ / ` ` ` ` ` ` ` ` ` ` ` ` ` ` ` ` _ _ ` _ ` ` ` ` ",
"Q / / / / / _ / / _ / / _ _ _ / / / / / / / _ / / / / / / / / _ ",
"( ` ` ` ` ` ` ` ` ` ` ` _ ` ` ` ` ` ` ` ` ` ` ` ` ` ` ` ` ` ` ` ",
"' / ) _ ` _ / ` _ _ _ _ _ _ _ _ _ _ _ _ _ _ ` _ / _ _ ` / _ ` ^ ",
"l.* D S D D D D D D D D D D D D S D D D D D D D D D S F D D * ! ",
"E.G   + # - $ $ $ = $ $ $ - O - - = $ $ $ - - - $ # # O - @ @ F.",
"E.U.A ; ; ; * ; ; ; ; ; ; ; ; ; ; ; ; ; ; ; ; ; ; ; ; ; ; X p.E.",
"U.E.l.% % : : * : ; : : : ; : : : : : ; : : ; : ; ; : : . q.E.U.",
"U.T.E.l.& o Z * C C C C Z C C Z C C Z Z Z C C C C C Z X 0.E.E.E.",
"T.R.E.E.j. .| ..................X.............X.....} w.E.E.U.T.",
"R.T.E.T.E.C.&.@.%.%.%.%.%.%.&.&.%.%.%.%.%.%.%.%.$.+.9.E.T.U.T.U.",
"P.T.T.R.E.E.V.>.@.-.*.-.-.*.*.-.-.-.-.-.*.-.-.#.#.f.E.U.T.R.R.T.",
"R.U.U.Y.T.U.E.H.,.@.-.-.-.-.-.-.-.-.;.-.*.-.#.-.k.E.U.T.U.T.R.T.",
"T.R.U.R.R.T.R.E.I.1.@.=.=.=.=.=.=.=.=.=.=.$.:.C.E.T.L.R.E.T.P.R.",
"U.U.L.T.T.T.R.Y.E.U.8.[ O.o.o.o.o.o.o.o.[ <.Z.E.U.R.R.P.R.T.R.T.",
"T.R.R.Y.R.R.T.T.U.E.E.7.> 3 4 4 9 4 3 > 3.D.E.R.U.R.R.U.L.R.L.U.",
"R.Y.L.L.U.R.R.T.P.T.E.E.s.< 6 7 { 7 < 2.T.E.E.P.T.T.P.I.R.U.T.R.",
"L.L.L.L.L.L.R.L.Y.L.L.U.E.g.8 8 7 , 4.Y.E.L.R.L.P.L.L.Y.L.L.Y.L.",
"A.A.L.A.A.A.A.A.S.A.A.A.G.E.h.1 , 6.E.L.A.A.H.A.F.A.S.S.A.H.A.H.",
"v.x.v.v.b.v.x.v.c.x.x.x.x.v.F.d.5.F.v.v.x.z.b.v.z.v.v.v.x.c.v.x."
};
