/* XPM */
static char *_dc4035721174ff3e958bb0b335f6a89[] = {
/* columns rows colors chars-per-pixel */
"32 32 168 2 ",
"   c gray3",
".  c #0B0B0B",
"X  c #101010",
"o  c #111111",
"O  c gray7",
"+  c #131313",
"@  c #161616",
"#  c gray9",
"$  c #181818",
"%  c #191919",
"&  c gray10",
"*  c #1B1B1B",
"=  c gray11",
"-  c #1D1D1D",
";  c #1E1E1E",
":  c gray12",
">  c #202020",
",  c gray13",
"<  c #222222",
"1  c #232323",
"2  c gray14",
"3  c #252525",
"4  c gray15",
"5  c #272727",
"6  c #282828",
"7  c #2A2A2A",
"8  c gray17",
"9  c #2C2C2C",
"0  c #2D2D2D",
"q  c gray18",
"w  c gray19",
"e  c #323232",
"r  c #353535",
"t  c #373737",
"y  c gray23",
"u  c #3C3C3C",
"i  c gray24",
"p  c #3E3E3E",
"a  c #414141",
"s  c gray26",
"d  c #434343",
"f  c #444444",
"g  c gray27",
"h  c #464646",
"j  c gray28",
"k  c #484848",
"l  c gray29",
"z  c #4B4B4B",
"x  c #4C4C4C",
"c  c gray30",
"v  c #4E4E4E",
"b  c gray31",
"n  c #505050",
"m  c gray32",
"M  c gray33",
"N  c #555555",
"B  c #565656",
"V  c #585858",
"C  c gray35",
"Z  c #5B5B5B",
"A  c gray36",
"S  c #5D5D5D",
"D  c #5F5F5F",
"F  c #606060",
"G  c gray39",
"H  c #676767",
"J  c #6D6D6D",
"K  c gray43",
"L  c #6F6F6F",
"P  c gray44",
"I  c #727272",
"U  c #747474",
"Y  c #767676",
"T  c gray48",
"R  c #7C7C7C",
"E  c #7E7E7E",
"W  c gray50",
"Q  c #808080",
"!  c gray51",
"~  c #838383",
"^  c #848484",
"/  c #868686",
"(  c #898989",
")  c #8B8B8B",
"_  c gray55",
"`  c gray56",
"'  c #909090",
"]  c #939393",
"[  c #979797",
"{  c #989898",
"}  c #9A9A9A",
"|  c #9B9B9B",
" . c gray61",
".. c #A0A0A0",
"X. c #A4A4A4",
"o. c gray65",
"O. c #A9A9A9",
"+. c gray67",
"@. c #AEAEAE",
"#. c gray69",
"$. c #B1B1B1",
"%. c #B2B2B2",
"&. c gray71",
"*. c #B6B6B6",
"=. c #B9B9B9",
"-. c #BCBCBC",
";. c gray",
":. c gray75",
">. c gray77",
",. c #C5C5C5",
"<. c #C6C6C6",
"1. c #CBCBCB",
"2. c gray80",
"3. c #CDCDCD",
"4. c #D2D2D2",
"5. c LightGray",
"6. c gray84",
"7. c #D7D7D7",
"8. c #D8D8D8",
"9. c gainsboro",
"0. c #DDDDDD",
"q. c gray87",
"w. c #E1E1E1",
"e. c #E3E2E0",
"r. c #E4E3E1",
"t. c #E5E4E2",
"y. c #E4E4E4",
"u. c gray90",
"i. c #E7E6E4",
"p. c #E6E6E6",
"a. c #E7E7E7",
"s. c #E8E7E5",
"d. c #E9E8E6",
"f. c #EAE9E7",
"g. c gray91",
"h. c #E9E9E9",
"j. c #EAEAEA",
"k. c gray92",
"l. c #EDECEA",
"z. c #EEEDEB",
"x. c #ECECEC",
"c. c gray93",
"v. c #EEEEEE",
"b. c #EFEFEF",
"n. c gray94",
"m. c gray95",
"M. c #F3F3F3",
"N. c #F4F3F1",
"B. c #F4F2F3",
"V. c #F4F4F2",
"C. c #F5F5F3",
"Z. c #F6F5F3",
"A. c #F5F3F4",
"S. c #F4F4F4",
"D. c gray96",
"F. c #F6F4F5",
"G. c #F7F6F4",
"H. c #F7F7F5",
"J. c #F7F5F6",
"K. c #F6F6F6",
"L. c gray97",
"P. c #F8F8F8",
"I. c gray98",
"U. c #FBFBFB",
"Y. c gray99",
"T. c #FDFDFD",
"R. c #FEFEFE",
"E. c white",
/* pixels */
"r.s.l.l.l.d.r.d.s.u.s.s.d.t.t.l.d.d.d.s.t.d.e.s.d.r.s.l.s.s.t.j.",
"E.E.E.E.E.E.E.E.E.E.E.E.E.E.E.E.E.E.E.E.E.E.E.E.E.E.E.E.E.E.E.E.",
"E.E.E.E.E.E.E.E.E.E.E.E.E.E.E.E.E.E.E.E.E.E.E.E.E.E.E.E.E.E.E.E.",
"E.E.E.E.E.E.E.E.E.E.E.E.E.E.E.E.E.E.E.E.E.E.E.E.E.E.E.E.E.E.E.E.",
"E.E.E.E.E.E.E.E.E.E.E.E.E.E.E.E.E.E.E.E.E.E.E.E.E.E.E.E.E.E.E.E.",
"E.E.E.E.E.E.E.E.E.E.E.E.E.E.E.E.E.E.E.E.E.E.E.E.E.E.E.E.E.E.E.E.",
"E.E.E.E.E.E.E.E.E.E.E.E.E.E.E.E.E.E.E.E.E.E.E.E.E.E.E.E.E.E.E.E.",
"E.E.E.E.E.E.E.M.%.Q K ) ;.E.E.E.E.E.4.] o.D.E.E.E.E.E.>.{ ) 9.E.",
"E.E.E.E.E.E.j.D : X @ X , Q E.E.E.E.{ . p a.E.E.E.E.=.w   F n.E.",
"E.E.E.E.E.I.H X 6 Q o.I : % ` E.E.E. .X s u.E.E.E.>.t   Z l.E.E.",
"E.E.E.E.E.>.: 4 O.E.E.E.Q , y j.E.E. .% k a.E.E.4.p X A j.E.E.E.",
"E.E.E.E.E.W % v E.E.E.E.9.9 : O.E.E.{ % h j.E.4.p X D c.E.E.E.E.",
"E.E.E.E.M.m : Q E.E.E.E.M.M , W E.E.{ @ k U.w.h . v w.E.E.E.E.E.",
"E.E.E.E.j.h :  .E.E.E.E.E.I % K E.E. .@ M 3.M @ v 9.E.E.E.E.E.E.",
"E.E.E.E.u.t : o.E.E.E.E.E.W @ D I.E. ., s j 1 6  .E.E.E.E.E.E.E.",
"E.E.E.E.9.9 , %.E.E.E.E.E.Q % v I.E. .4 6 4 9 , v u.E.E.E.E.E.E.",
"E.E.E.E.9.9 , @.E.E.E.E.E.Q % m D.E.{ 4 4 k  .s X Y E.E.E.E.E.E.",
"E.E.E.E.j.y , X.E.E.E.E.E.T % G E.E.{ : 9 ;.E.` : 4 *.E.E.E.E.E.",
"E.E.E.E.c.v : [ E.E.E.E.I.K % Y E.E. .@ k M.E.M.M , s u.E.E.E.E.",
"E.E.E.E.D.D : K E.E.E.E.c.h : ) E.E. .% h j.E.E.3.9 % K E.E.E.E.",
"E.E.E.E.E.[ @ p j.E.E.E.>.4 , >.E.E. .% k j.E.E.E.) @ 4 O.E.E.E.",
"E.E.E.E.E.5.6 : Y c.E.9.Z % v M.E.E. .% h j.E.E.E.c.v X p u.E.E.",
"E.E.E.E.E.I.] : : m K s = 6 =.E.E.E.[ X h j.E.E.E.E.;.6 X H D.E.",
"E.E.E.E.E.E.E.{ y , % 4 k ;.E.E.E.E. .: k j.E.E.E.E.E./ 9 , @.E.",
"E.E.E.E.E.E.E.E.c.1.&.5.D.E.E.E.E.E.D.j.c.I.E.E.E.E.E.E.c.u.c.E.",
"E.E.E.E.E.I.E.E.E.E.E.E.E.E.E.E.E.E.E.E.E.E.E.E.E.E.I.E.E.E.E.E.",
"E.E.E.E.E.E.E.E.E.E.E.E.E.E.E.E.E.E.E.E.E.E.E.E.E.E.E.E.E.E.E.E.",
"E.E.E.E.E.E.E.E.E.E.E.E.E.E.E.E.E.E.E.E.E.E.E.E.E.E.E.E.E.E.E.E.",
"E.E.E.E.E.E.E.E.E.E.E.E.E.E.E.E.E.E.E.E.E.E.E.E.E.E.E.E.E.E.E.E.",
"E.E.E.E.E.E.E.E.E.E.E.E.E.E.E.E.E.E.E.E.E.E.E.E.E.E.E.E.E.E.E.E.",
"E.E.E.E.E.E.E.E.E.E.E.E.E.E.E.E.E.E.E.E.E.E.E.E.E.E.E.E.E.E.E.E.",
"V.Z.H.D.V.M.V.Z.D.D.S.M.S.A.A.D.D.A.D.A.N.A.A.N.N.Z.G.Z.D.Z.Z.N."
};
