/* XPM */
static char *dfe59bc06724448ede37088d8721600c[] = {
/* columns rows colors chars-per-pixel */
"128 128 53 1 ",
"  c #371904",
". c #3D1C04",
"X c #431E05",
"o c #462006",
"O c #4C2306",
"+ c #512506",
"@ c #522708",
"# c #562A0B",
"$ c #5A2D0D",
"% c #5D300F",
"& c #5B2F10",
"* c #5E3111",
"= c #623514",
"- c #663817",
"; c #683817",
": c #663718",
"> c #663918",
", c #6A3C1B",
"< c #6E401F",
"1 c #70401F",
"2 c #6F4020",
"3 c #744423",
"4 c #784725",
"5 c #774927",
"6 c #7A4927",
"7 c #7D4C2A",
"8 c #7F502F",
"9 c #814E2C",
"0 c #83512F",
"q c #88532F",
"w c #865331",
"e c #8A5633",
"r c #8D5936",
"t c #8E5B39",
"y c #915A37",
"u c #935D3A",
"i c #995F3B",
"p c #96613E",
"a c #9A613E",
"s c #A1643F",
"d c #966240",
"f c #9B6442",
"g c #9E6846",
"h c #9F6A48",
"j c #A26642",
"k c #A36946",
"l c #A96A46",
"z c #A46C49",
"x c #AB6D49",
"c c #B06E4A",
"v c #AB714E",
"b c #B3714C",
"n c #AF7451",
/* pixels */
"ppuuuurtteeerreeqq800qweww0000qe449qyiafaptwttrttptutuuippyptappapyreteetppagffagfffafafauuuyuytuyytetypaay0900yyiuyt0eeteeyuupt",
"pueuupuytytyypyytwwww0wewrtyrrasiyyiiifaaputputtuufuteeyyrryppytprertyyuppkzkagfdfppupfdffgfpuuttytuteyqqquy00eitetett0tttuuaapp",
"e9weeteepuuuuiiuiipppiyttttteyq9eyeryyyttupfuauypppputytrqeq0eqq0q00eyyyppppgfggfddduddffffffpppuyut0tttuuttyyeyyyieeeew0qyytyte",
"uuuuyytyyyiyuptyrreeeeyytyytrq9qewrtyryuuutttrttttuutyttrptreereqqeqqrpppgppfapaffgdutpddpafddpfpteeyreer0tuup070eweyasfayuytuyt",
"puutttyuttrrettyyyyyterypyuyitrrtteeetrrrreerwrrttpurryyttreeeeeerreqetppppdduppfdhddpudtptptuutrretrtt00077wetw0tuiueyyiayyuksa",
"0ewretuuptretrewrettrtrtttttrrrqetteeeeeewr990eyipypprwttettutyyyipyppptptpffpuddfhdttttuputtrwwweeeeeetrurrwwre99wqq9erytyyypyt",
"twwettuupptreetrytpyytpiyuputyyutttetrrrtuuyeeyiytiyyttyyttytpuyrrtyrrtypytppppppdtpewtetutuutrwtte0eteeteewwwreretew0eeeerrrttt",
"autteuuuppapuyuupuppppppupagaptuuutuueteewwetrweerttypytytrttyttrtrtqqeweeetpuppdtdteeteettatutttuutyyrwwwttpttw00wyuu0ertrtyipy",
"pttyeeutuudppffppttdpptuppdhkfppuuuuupttetwweereqwqwertypppytppteeertttrteettttuuupttdfutpupddddapppttdpt8wewtrwrr80wrtwqeetrrpy",
"0qw0ttruutdppfuttttteeerrrtupptuuuutueeetutteeeytrretuypyytpdtpppppppttutpupuuptteteeeetudpdglgdfkpupdpdfaadpptrtytrreetteyrqrq0",
"iareiateettutwettttewetutrttwrrweer066w0wtuuuuifpypewreqwrrrttereteeertuttrereeretettttwwrw80wtrrrutrtteeerrrerttpupupaapppiytey",
"00eeetyetuufjuauttttew0wrttptupuyijltuuuuyuuuuiippytreq780qqwwwrettpypttteeerttrww8877w70ww03367878w8wwerrrtptpdypypttyiye0700q0",
"###$$$===:;,,;;=,,,,;;-=->:,--=%*%==*&&&&#+OXXX+oo++@##%#@+OOO@@@##%$$#OO@#$&&&&*$##+OOOoooo.ooooooooO++O###&&##@@OOooo+OO######",
"XoXXoooOO+++@@########++O+++@OOO+XX+O+#$&&*&$&=*%=====;<,>-*===><<,<2<,,,><32223322,,>-****==*=***%=%===-<,,2222,;-%$%*$$##+Oooo",
"00999090eeeeyuaatewweeuyryuqsaauyewyiffuiyteert99900ryaaapyututterttuutpptttutpttttutteewuututrrtuutuyuttrrtttdtputwwtt977779767",
"aiyiyyyiuuyrtajaieww0wtiiuiuajlljjyuskkiutyweetrrypaaksafaauutrrtteetuuttttuduupduptuptpapppuuuupaupytrettreettreeeqqeteeyyeyyyu",
"0werettwetyytyuauauuiuuuuiyuuyiupairyutitryttpapapaskagapppptttpuptettttuuppppppppptttutrtteeputtrettttttddtwtetewttypaaaaaatyr0",
"ye0e0epuytteyretyuuuuuuuuuytttyuuttreeertutufffapapiappppuuppppdpttetrtdppdgppppuuupfkfurtpttppdpptrpppdddte8tweupppzzzaaapppyip",
"faauueeutrerrrtuuuiaffffjaaaptuaafdttttuiuuufdjsaapppaaappppppudpttttpddfddddppppffapppppuupdddddfhkddpfdfd8rtppgapakkvkkkaakaaa",
"kkfuuueertttuyuuuupaaipfaaafpaaaaaptrttyuuppuudfgakfapggapddpdpdppppdddddgfhggfffdgvgpupptpdfttppppfpppptdte8eerpppfaahzvzlxvllz",
"apuuytutyutyuutpupppuffdpupaapauupiutudupuuududffpfgfpddffdddddfdpdpddppppdpdfpttpddgdputwettwwewwwwqrreew880wrwwtppuphvgdddkfpp",
"pffappppuuppppppfapdpptduputtyuuuuuauduuppdauuddffaafpppfdfdduudppdppppppttttttttptpuputwtwwtttrttttww0wwtwrttuteeewwwwetreeetpp",
"jhkfaffhffffgffhhffdfffffpfffafaaddduddpfkdddfdddfhggggppphhgfhhhhghhfptttptppttppddutppfpdtettruaapuuupfpttuupfppppttrtuuafapgf",
"ttpfhhffffghhzhffkkfptddfhfhfhhffdgdgffgkgkdddduupppdduputppfhgfdfhfdffdpptutptrtwuutreetrrtwweewwtretypptuttyuagfaapttpfdppppue",
"767wttdtpdtdtddpffhddddddfdhhfhhhddtdddhfhfgfdpdttttttttww8wewwretpdpppppppupttwww8w8668087wrttttptrwwewttrttuttetrtqwe8w8808886",
"tewetphdfgvzdddddfhdttddppppppdfgddpddtduduttttttttruttttrtreeeeerttpppppuuupteettddtrwr0w8wwerre0ww0086675800r007800wturttupttt",
"w0w88rtdfppghhffddtdptddhzfdpdfhhddtpdfhgggfffdutttttpptrww0888ww88w0wwwrrettewqtw8trrrerrewwwrtt0008886666w66w0qqwertuyewerwwww",
"wwew8w8wrppetddddddtttdppfzhhhdfddweewddppzzhgfdpttupttptrwrw8eertupprppre88w688wtwwpaaattwtpttterttteypuuuiuufyeete0wqqee00eeew",
"yiasgpuutypptuputtprwttdttpdpffpdt88w88teetpttttueeewrettrrtpyrtetttpttptrttpeepppatappappppafpuuuriteyaaaiuauyuteiyiyiaslsaaaai",
"jsjapaaaitytttptpttterrtppttptddhttwtpddutetdpppttewewwwwewweryttr0weee08eeeeerrttaapppuappauuupuyiuiyipuuauuyyyrreqiqrissslksaa",
"saaaauuiuapupppttttrreeeweeetertdttwt88tt88wetutttt0wwwwrrettqeeeeewetewweeweeeqwrrtyppytyuuupuutupttteeeereew0weq0qryyryuiuaaaa",
"yyuuiiuuiauuyipyttpttttuttrptw888588wt888wtttuuuaffapuuttyuupuauuupurttrtttte0w0ww80qwrew000wtrrtrtwew007890w0wettt00eeqrpiriyyi",
"teeeeryytyyiyteyuyyutpuafaaueqryueruuaaetee00wwttyuuuyeyeyuyuaaauuieyteyeyqqrerrqee9e9eww9990990ww00ee00999wyetututw0eetturutuyr",
"yyyerrqrrrre0trttrretterute7qttyuyyyyufuuttteertrrerwyywq000eqreqqe9eee0eyeeeeyyey9qyqeq99996690wwe0eeeqwwweyyuuuyuyte9ew0ew0wru",
"yyyyerriyyeq0eeq000wee0we0070qeew90wqeeeyyiyeeyty9909weeee09eyq9qrueq0q999weqqw99eewqyeq99q43699000q0e0reeewwuyifkafiayiiuuryuty",
"tewerrqyrreeeeeeeew90ttyurttettuueeeeryrteqee090w9099997999999q0999eeyyyeq9966666469,,69499799636667776369963366666799w970weweee",
".XXooXoo+#$==;;,;,;;-=>=,=;-=-;,,,;;,;;,,;=-===*=*%$$#$#$#$$$$##@$@#@@#$$#$$@###$%**$#+#$$$%%%######$**-====&####+#+##$$$####+XX",
"==%=#%%%$#$#$$%%$####+++O#+++++++#####+++++++++oOO+OO+OoXXoooXXoX++@+XX+X+O+++O++X+++XOXXXX++OOOOO+#$$$$*=&$##++OOXXXXXXX+X+++$=",
"yassyryuayaiayyeyyyiueiyqaiayiqqyiajiauraaiaaaa09eeriiiuy09ii04qqiuriiitiaijiiiuuyuiiyeqqyqeuyyryrrryyeee99q9997996494466999qew9",
"llxllljaaasaaapuqetuuiuuyajlljstyaxljlljjjljssjlyeuisjljlsaaslasiiiiye0eeeereweeeereyeeeyyyeqq0ewqweweee9wrye99qw9wqqqe99eyyijll",
"aaklkkkaasaauaaafapuuiutttyyiiairyiasjssjiyyttuufjcvkjklxllljuttuipssssjaiutyutrqqqettrrryyyeqeiyyuyuyye099eww0we00eeeetq90e9eti",
"ytyaaaaaaaapaaafpduuutuuyteetteeye0qriauuyeyyyrryfjjlllkjffuyeweqqrqrrupteurtiiuiuqrtqqq00q00e00wrrrwrutuyuyyeew0000eeeeeetutywr",
"yr9qirypaaupuuptpptpyaafaaypaafgauityptuytetyyeytuuuuffjfue0weetteq9e9ywerrtyiuiiuiiipiuyrree0079wweyeeqyruruuiuuttetetuyauyyuyy",
"eiarryapaaaapppptdpppupakfkafsffapartiuuauuytuurtttueerweeeeeetee9eeweeryuiuiuiuutreeeeyerttyuuiiyyrrwrreuuuauauteeetuuuyiupyfiu",
"ragaapfadfzhxzvzdfffffffuptyteppyuttttauututuyuuttte8tttuuyyrttpuuttereettuutrttuuauiuytuuuafupuuuuuuutrwreyyuiutuuuutttttewturw",
"pyakfyutpuddfddzhdfdpdfppfppppupuuuutppppppppuppdtuudtpdutuudttttttttuuaduuteeytttttrytuuppfffffuutttutuiafjaiuuajpupfuaheewuueu",
"080tfagkgffffzgdfddfdfhkvkvzvzdffffghhpppapppdpfhdddfdddpptetdddtddtuuetutpduuuduuttttudaffdffuuutttyufffufffatdfpuutepuudpdwtde",
"ypw88pappfddddgffdpttptpdphdfzgdfuuddpdpdfpfhgfdfzhtddfdfhzzhddddhgzhkgdfffdfffdddudfffkhhhffgfffffhggkkzkfpfffdtpptt8885wue97et",
"puptwetpdfpuupppakgkzkffhdhzzhhpdfdfzfzdtttrdhhhhhvdhhhffdhvhhddddhfdddfhghhfhfhzddtddddhhhfzfhhgghvnvzhkkzzhphfptfkzfuutwwrttuu",
"uttuppddffhpppffghkkgzzhppddhdgpdttuttddpptretddfddhzzhvhddfhddddutdppddttptdpdfdddttddddddttuuddgzxzzzzzzzzzkggffpphdfgzdduuauu",
"ppappupuapptttttuppppddppuuuppfvzzvzfpdppterttddddtdddffdddptdddhfhhhhhhvzhdddfhhddtdddhfkhfgghddkzxzgddafkpuapdapagddwtgdutuduu",
"tttuttppappaappytyttpdffhddphfzghzzznnzzgdtrww8eweteetddddttdtddffhhdfhddhzhhfdftdee8eddpdzzhfhdduudfdhdfhhkzvzhkpuewtw8tuueudew",
"fffzptptpppppppppuuyppputeereeettpppppdpppptrerw8ewr88ettetrw8wweweeetddpttdpfdddt88e8wtettdtttdtttttttdfhvzzvzhhfttdddddhdtfutt",
"vzzvgppptpppfzgkfppappppagfaueetttrppuutrtyrerewtewewee8eeeetrtreeeewteptptppuddfdetttppttwddddddddgddtttttttpdhzhhhhvhdhhdhhhdd",
"eeetteetrppppdppfduppytettttttytttttrrtreew0weewteetw8tewrreww00880w88w8wwewteettt8erewte88wetdtttttttdddddttw8wwwwwwttttte8ttt8",
"ttepptppuppdpdghdfpputtteeeerttrtppupuuuttuyttuytpttpteterrtrreqwwwwettttettew8w88ew8tw7wrtwtet8tuudutttdfhgfputdttwwtwtttt88www",
"ttttrwttutpppupdffpuuttuputyypittyptteeutrrteerreptpaueryyyuutttuyyttuuudputw0ertqrypypqeww0w87wwwwttteeettpputtutuuiapadhddfiur",
"ttrppupuapputppppffpdpppafpupuuppupttuuuyuuutttrtttttyptrryut0eeytutyteyptt7wrerrerrrpaiuuyuetewww080wweeeeeettpprrttuupdddffpfu",
"utwtttuppppafpppppputppdafkapuuuuuupuyeutytuptuuaappptrttttttweyuuyuuruttteeyttrtptrytppfaffupdttute0wwweeeetwwettrrtrtttuutuutt",
"e8errpttpppdpttrttetwrtttppptupputueww0utw0treuuptyeq0qttwqew0eutreeeeutupptruteeeetppppffupfuttutuupuudutettuteeyttruyetewwqe9e",
"tepaterrtptwrtyttrewtuurutrrweeerq460770q70weweeew67000qq00qe00eyyeqwetwrwweeettrrwweww8wrettttetteteetwtttuuuiiuffpuuuyyyyiyyui",
"eewtyettpakyppttttew8wetupyupuuafleiyyyuapuyyuyuakeiyyyiapuyyt09we0tetttw75799998w80ee8336778wwwwwwetttuuuuuuuuutuiyre99999w9eew",
"#$$***--;>,>=;><,<---*><;,-=****==*%%%*%%=%****%===%%%%%%=%$%%$$$===:-**$@@++++#O+OOooooooOOooOoO@O@#$$&&&$#+O+XXXX++@$####$####",
"ooooOOO@+@@@####@@@#++O@OO@OOOOoooOOOOoooOOoOOOoooOOOOOoO++OO++OoO+oOO##***=:=-:--------*:=*:**:**::,,,,2<,,::*%*%$$#@++XXXXXXXX",
"9997900e0wtipiywweeeyuetyeaiatuweyijjiaiyiafauywetissiaitajjfjja09q0999werttrttttrrrtutuyreytutrytttettttptdutwwtt0696994699q999",
"yuutyiapueyaksue000wtiiiauajlcljyukcclxxljjlllljuujxczlljjsljajkjyeyyuifuyuuuuuiuuuuduutttrttteewwweteeettteewwweteeuyeyyuypiyii",
"eewyywwtuiuiasjfiaiuyuudyuuiiaffauasjllgsjfyuidfiiasfjzssjfuyytuuaajfaapuuppuuuuuduuuttrreww979990weetwwtettettuafadpaptty9wewww",
"ww90yyetyuutyyupyituudupiuuttuuuuiyetyidiuiytiuuuiittuupuuuuuiuupupadfupfuuuuuuuuuutuutpuuututtttuuudue8ewttuddkxksdapiuuiitewew",
"yre7weeweyttttteytudpfppfffuuuduputpuufuiuuuupupupuuupputtuapuuuuaddddddddddppapadudddaduuuupuutteutduwetuufddakkzjjjudffffiiuuu",
"wwruteupuutpdddgfuddptpuufffhjhfpupddfifffdpfffpuuudptupuapuppptuutdppdhfptdppffddfduuuudduuuuauudttteteeetuuuafffzzkzkvjfjffuur",
"uuafppddhzjgfjzzzhkzfhhfhjffhkfhjputtttfhfgdffhffdduttupfffeteewertptuddddddddffgdduuurrttutututttteeww8eueeuuuupfxgduuututt9erw",
"updagpptpdgdgddpudputuppppffffuttuutetttuuuuuuiuttudttuupfhaufgkfptddfffdutddtddudududteewewewwwwwwteetutuuw0e99www70w0eeut9wuiu",
"addddfhuufzdhfgjffghfdhffffdttwetpfuddputppptdiutruudduuupddudkffffhfddtdttdfhzfuuuuuuptteweyrwerteerryrrrattr9err9wtututrfttufj",
"w0wthffhddfggzzgzhfdpttudttftdetpttdjdjpeuupupffuwuadfgdfffffuuuupptpppptttfddfgfduuutrtttettuttuuuiutrrtyttttrttituiuffj9ufutrt",
"0wwwtudffdduttpuuuppfdpputtutfutdttffdffifffhgiuputuuafdaafuuufyffkatuuptwttpptpdduutrewweeretdduuutttttyet09rerrtududdua97w0w8w",
"ettttdfjjjpytwttpptppppfdduufdufjptjjjjhggfjffggfjffdfafufuuuuuutupupptptttttptpuduuuttrwrtrweteeetuuauutyrrwrtrwwtwwwtuduweetwt",
"tttudddupuupteutupppttuputtffdffpfgfjdajfzkkfffddffffffpfffkfkzfaufpupuuttetttettudffdtdauttewetuuddaffgkptaattrr9teetruujutudua",
"tudtuetwwtutwttytuupdtdputtuufffufjfddafzhfufauuuaafafapuuifdglfffkfppuupuuuuppdddadadttyuuidgddfffhggffduttuuudujfiffujafffkfuu",
"dduudtueeut0eiffptutpupffdwtdffhhfhhhzzvnjffjfaakzfffdszffgfffhffduptupuuupppppfduddauetweuuutudadufdffafurtwetuuttuduuftffdgfdf",
"uuuuuuduttutuudfdpppphfpudutuutuuddudfffhfkggfddkzngadfkfggfppfhfdtupptttpduupptudutduutuafduddufdudaddddautuggddfuuffdfffkfffdf",
"tttetuddatuadtttttuuduafffffffffhfdfddttwtttttttdddgutdffghffputuuttupptuuuuututttuuuutttupauadgdduupuuteeteeiafuudpdfzxjuffhzzf",
"0wwwudddfe0eww0eetudddadddfjfufuududfddddtdddhhhffhhgdttttudfgutpppewtpetuuuuuweuuduutttuuppaddupdtduddete80euttputtuffffduuttew",
"wwwtuuuddpetttttuadduaddudaafdfdudttttwett8wwttttudfhkfutetttputtudtteetrttettetuuuuttwwwtptuuudtettttew00764wuywwwew0ettrtuuuuu",
"dtttuddffjduuaudaddfffdaafkffuuddddueetudtdttwttettttetteetertuupuupppgfuuuytetwttutttttyuiteetttwttdtt0tew07099639eweuiftuuufff",
"tttweuuuudaaafuuudddudduffhvffuutududuteututtdttukkfflyytrweewyyuufiewt09e9q9y99rrettturryuuuuutttettrrewe0649eeewtiuttiiuautuut",
"ew9reeuutddufduuetteewttttuddtdututuew00utw7tw8wufeee06eeeeww09900eqw0e6que9eyqewyupudfuapppuutywwwteereeerr9eeuufuifkjd9iuwrw99",
"uteaayeettutwtttttewwtuttttweeeeeew34997097700w0wyy9669eeeweee99rye9wyut99q999qeeeeeruduuafuutte9wweqqeeee9tyreeruifjkaiuuiyyeui",
"0eeetuetuufjuduttttew0eettuuuuuudjzruuyyuaduttew90w0e9997667790990w9096errute999499e99wr99ereee9ew86996648436794237444999769ww9w",
"#@$$&:*:::::,::,,,,:::::::::::&&&::*&$&&&&&&$&&$$$%%%%$$##$$$#$&&$##@###@@@$$$$%#$&*::<2<,,,1:,,::*&&&$$&&*::=:*&###+++@#$$#####",
"XXXXXoo++O++###$###@++++@+O@OO+OoXXOO++XXXOOXoOOXXXXX++XO+XOoXXoXXXX+X++X+X++XX@++@@##$$$$&#$#@$$#@@++@@#$$&**&$##+OXOXXXXXXXXXX",
"0999999weqeeiifyeeeeriyeyieaiayuqeyijjssiyjjssssj96yyqiiiiiyyq9iiq9qeiuyiiiuiaasiiaiuyuiiueeqyqettuyrtreytwee99q9994994444464499",
"iyityiiiauyyflgye099wtiiiaysjlcljyylbclccljjlljsjcywyiisllljljaijliiiiiitqqqeeereeeeeeereeeeeyyeeqqqqqqeeeeeqwrye99qe9ewtw9wtyyi",
"9weetewwtiituissaiiiyuyyuryryuiaaiyyasjjjsjiyyyyyyjkcckkkkklclljjiyeyiikjjjjspitrtyeeqqeyreeruryeqeuyuuutyyew99wqe9ewq9eeyw90w49",
"97949utytyyiyyttutuyytyyuyrrwtyyyeye9weuiuuuyyuyrryjfjzllllkfgfyeqqeweteeruiyqttiiiuiteereeq9qqq9e99eeeeertyuiyyyeeqwwwweewerytw",
"yeyw37teeyyyytyeryiajjgxlkjiytjfjjjyuyuiyiuyeyuyurtuuiyijklfit9wqytuue96tqr99tttuuiiuuuiiaaurerqe99999eeyeewtttttyiryee9rtyiiyty",
"at0tt97weweeyteerryeytysaujjapsjasuuieruuujuuuuuututuuerrww9yy99ete9w0qe9qetiuiiuuituyeqe9eeeerruiiuuiyqeweeeyiiiiiyeweyeetteuii",
"u90isautuyijfpffiuuuuuyuuwweqyqqeyye000eauyeyryyuiuuyw6uyyiutyuyqyieie0e9099yryqq9qyyiyyyr0qyuyyiuturuiyireeqeeeuyiutryyrywwq90y",
"tyyriittyeryuauuuuuuiuayqw9699794qyey00eweeeeewyyuy99wuwwrt9tuiu077w0qysssayiyyiyeyeyiiiruareypyuaauq99eeeyassaiiiuuupuurrruytee",
"yiiiyiiiyyeeetyuuuutyaiajjjiaayyy370000079eewrrryauwruyrrww9690wt09yasaeiiisiyubcsyaaaaeqasauyiiyeqeeq9uasiyuuisiaiiaieetettruyy",
"ee09wiiyretttruaiuuyuyyyisjllsiisje00eew090ewrruuuufiyyrutuaurreyeqqewe0yiauiiysssaayryyreuuytyereeryeqqqeq9uiiiiutiuuppr9uuwtur",
"9qrr9wreetytttytuteryuasaiaiiaiy0eq990e0qeeteuuuuuufuetuetreruewyauetutwryuttyyyaeeyryeiiyqiaiiiiutrypuetuyeryiyytuiaakfafffrttw",
"yeiiyiiiuuuiitttrueryeweyeyee0eerweeetttjafuuuuuutfuuiuewtueuuffete0etypqurtuuuaseqqeqee099isiyeeuparre9ettpeuytuiiaafffkgafurry",
"qe9qyierutuuuuutue9uereryuuytyuuuuutuuttkuupuudauuuffkgfffftudupewttrttuwequputiptqe009qyq419qtaaafdtwtttttueeetuyiuuutaufiyyewr",
"e99wwweteyyutuutrryueruajaffffayuffpputppupfiffffffffffkzdduuuddutuututtuteweeettytyryyeassyqiaaafddutuututtutretutttuuputuuryrr",
"q99q99ereeeeertttuttt090rtuppuuphgaffudupafkagpeuapuptduffafuupudfpautupfafpuuuuytutetee99qrqyyyuutuudpputuaapputrteewqq0w9w99qe",
"eeeew9weeree00wwweeerteeeetuuuuddpudetdfkgahfptrreeetdhdupuufdfptttwrrrrreruttuttewrtee07qqeqreyuuuutetrrtttttuuyytytterreqqeeqw",
"ery9eeetrttruyerertretttutuuffuttetewetuuttttrrw88wwweeeeww77wwww0w0wqwtiu79eee9q00wq0qq0qre00qeyerrqeeeeeeryueryyyttqqrwqweee99",
"9eyruuuuytttauttruue0weerttetewweeew0w888w88wwwwewewwwwtw76009660w099976q9663379qwqerrrrtyyauiuuuuteyueeeye9weyqweqeteetyryeeyee",
"iewuauuutrtytupuufuurww7690wwwwetteruyww0tt00qrwwew099ew0ewe0970ww00qe990eue0q0qeeqrreqryqryyyiytryreeeerrtttyruuyputeeeqerrywya",
"ywwuaututuuuaffafafuuterwruuuyyuyeyyfytrrtuuttytw0wttuetww8wupt87eew000w766rtttteyuyyeeeryqetryrqrrre99qeeqeyeeettyyeryw0tyrrqeu",
"yyiiaauautyeeettuuuuurerrweeuffjfrpuaffpagpapttpdt80wwteeet78wetw00000euut08weeettrytqeerererrrruyyuqq9934999qqeytyyyyiteuiteeyu",
"rytwettiuututreeeeuuuuiuyauutewertapdklgffjpupppfffpapuuetuueeeerrtttufuupyeupyertpuuiytryrrrreqeuiiiaueeq9eeeeetwqeeqryputytq79",
"60006080wwwtuuuew878wwtuufgkjatewwe8ww8teetttrttrtweeerrtttuppipfpapytturrtttautpeeyyyttreypauuaaapiyqrirpyrrypyeeeq09760qq07qq5",
"8666633656667008576366366670776w0qew83558888ww0w8wretpuuippuyytpaauuytw066wew0eerereeeqqrreeqqeqqrq0q790q000eqqrqewwq094655468<5",
"... .oooOOOOOO+++##+OOXXXXXXXX.OooooXXOooOOoooooOoOOooOOooOoOoooOoooXoXX.ooooooXooooo.oooo..X..XXoooOO+#$%===><;;;=%$+Ooo.   X  ",
"====;==;;==-;,;;,--:=$*#&$$$$&=&*$***********%%%***%##*%%%**$#%%$$===%==,>***-=-=%%====%$%%==%*=*%=;;;;;,<11<<111<1,,,;;========",
"sasssssutytryeyeweeyyrtuyeewe0w9wwuurutrrriuyyttte80qyrtyppe0qrr97990eyaskaipslkap09psssyeyaaaassaasslkssksssssskkskslclaassssll",
"iqqrq0qqtttyuyieeeturuuytuuuuwteupuuuuyutppppteqw8665567870000eteeyusjklllclxlllcbcbccbccclsscxlsllslllllsaaasyyiuiiassassaiayyi",
"00q097000qq0eytyteew00wewew00797688e00tyyteqrew0qerwr0eyq00ryppsjsajlxljsklbljkaasslsssblxxklxbbbcssaaypkzsasssslsiyqqeqqe0qeqyy",
"uyiauiyreyrrqeyiiuerueyyuytrwww00w076wtyttpttypauufglkkllclkslllaasaiuyiiiiaiyiaaaassasssksklskllklkkksaaaasssssklkksaaaaiapyyyi",
"yyyqyisiisjaiuaaayeuauuyiuiiyuiiuierryterrrytuuuuyaiiiaiaaasasskssaaiiiaiiiiyiyyyyyyyyyiyyasayaaiiiaiiiiiiyyyyyyiissaasiiiiiiiyy",
"iasiiiisisssaiyyyeyyiuyiiyytee0eqrretyuyruyuiiaifauyyeqqeeqqryiasssssssssiiiiiiiaayyysssssssssssaaasisiiiiiyyyiyiiisaissassaassi",
"ssaiiiyyeeyeeeyyriiyyye0eyyiyyyr00trtyyuuyuuaaauyteqwqeeeeeqyryyryryyyasssssssssssssssssisssasssiayiiyyyiiyiyyiyyyyyiiiissssjsss",
"q00eewewruueqwwwqqq9qyiqyeyiayeiaeqiiyypiur0weeyyuttyttyytppypipppiyqqeyeyyyissslssssssssssssssssssasiiiyyyyyyisiiiiyyyyaiyreqqq",
"wwweeq9wweew777667999qiyyyuaarqasauuiuyeeetq9yuauuafaauapiyyytptrrrypqeyreeryqysssasssssssssssssssaaissiiiaaaaaasssiiiyqeyee0009",
"6e9399eww90ww09000qqqeiipiyyyrreyiyeyereeryee0eetyauuyyttpyppptwyprpyyppppyyiyyyyppyaaaassscsssasisaiiiiiaiiiiiiyyiyye99qee9q099",
"tuitwwuyteuyutetee0qqeieeqyrriiyeiiiiuuyueriueyuytyuutertyppaapgaatppppyyyyttyyippppyppppyaaayaasaapyyyaaaaisiaiyryyeyuyeyrruyuu",
"utrryurettuyttyyyt0etyuyeeeeqq099isiyetupaeteweyuutytettyypfagkgapyrypttpptppaaaapasaaasaapppyaaasyyaaysuiyyiyeqqeeyueteweeeewyt"
};
