/* XPM */
static char *e0b99fa89ad54e6bd016bd2768f1721c[] = {
/* columns rows colors chars-per-pixel */
"128 128 46 1 ",
"  c #1E1105",
". c #231407",
"X c #251609",
"o c #281709",
"O c #27180C",
"+ c #2C1B0D",
"@ c #321E0E",
"# c #2F1E10",
"$ c #311F11",
"% c #35210F",
"& c #38220F",
"* c #352212",
"= c #3A2514",
"- c #3E2816",
"; c #3F2A18",
": c #442B16",
"> c #4A2E16",
", c #452D19",
"< c #492F19",
"1 c #4E3017",
"2 c #47301C",
"3 c #4D331C",
"4 c #5C3717",
"5 c #5F3816",
"6 c #53361C",
"7 c #59371B",
"8 c #56381E",
"9 c #5B3A1D",
"0 c #633A17",
"q c #6A3D17",
"w c #623C1C",
"e c #693E1A",
"r c #4E3521",
"t c #513720",
"y c #553921",
"u c #5B3C22",
"i c #613E21",
"p c #67401E",
"a c #6C411C",
"s c #73431A",
"d c #79461A",
"f c #5E4026",
"g c #634124",
"h c #6A4323",
"j c #664429",
"k c #714723",
/* pixels */
"uuyu8988877t7t7633<63363t336>677>:1670wwii73tttyyu8999999999yi9wi99766778yiuiiiiggiwugwi995u99999988689959932666959u8366y6889uu8",
"uy6u9999887y9998y6t66666t689870004700wwiuuuyu9uuy9iu868988888i888878798yuuihhiiiuiuu9uiuggguu9989889869676951679768688388y98wuuu",
"636667869w999w70w89908788888766>4676888989uuuu9899uu9888766766<6>6>66988uuuigiiiguuuuuffigiguuuu98983869997869677778686666689868",
"9997788779989989876768788887761666688798uyy888898u998888888767876666689uiiuuuiuiugguutuuuuuuguiuu8668866668u9u6>366680ew99097578",
"9u989899877766879789767899898778886668887776666789u98888889668866476668iuuuuuuuuufufuuuuyyyuuyuyt6666883332>6663379097770w77weiw",
"33tt66899u8y8886788878898888887868866668668>>6675999986ytt8y888899989988u9uiiuyuffguyty8uuy8ytr36r666688898866966>1663679779899y",
"y6668y9uu988y888889988999u9988y888y688868998667999999888978889998888878y9989uuuuuuyutr66u899986698866866886616886686666887788u88",
"9u88698uuuiu8898u8iuuuiuuwiiwuu8uyyu86t66367886688798996988898887688863668tuuuuuuuuy8t88689i9989899889833388u8y36338883368888999",
"u99866uyyuuuuuiuuyuuuuyuyuughuuuuu88uuy868366t88366376899w989uu968888888866yyyyuu8uu89f9899ff99fiuuuu8uuy3r66y638y<66tt63t888899",
"6163886u9yuuuiuyytyt6tttyytuuuuuyu9uy666y9u8t66888868u99998u9uu9uu9998889u9uu9u8yyy6666t9f9fghhuigu9uu9ii9wuuuu88yu8t678y7986666",
"95769w88688uyr8yy8863t8uytyutt638683,>666889y99ww98866867y87yy8t7t88y88yyyy6666tt868y8663633336ttty9yyt6ttyt6y88yy9989iw99998777",
"63666898y99we9wu9888t6368889899u99es77978999u99w9988763><<6r336t688u9888866t6888r33332333t33,,,233r333rt66899u9999u98999886>636>",
"+++$#$*****===**=;====*****==***%@***$$*@++O..XOOXO+O+$@##+OOO+++#######O#+##$*#*++++OOOXXX  XXXXXXXXX+O+##+*###++OO..OOOO++++#+",
"XX...X..O+@o+++#+++++O+o+++O+OoOoo.XX+++$@*@@$$$@@**=*===**$@**==-=-:======:;;;,;:;-=***%%**%****$*@%****==-;;;===*$@$$@@@+o....",
"6331611666767www968667997796w9059669wwiww88668y>3>3679www998999ytyyyuyu9u888yyyuutyu88666998988889999899ytyyyuuuyu98t78>>>>>1>>6",
"5w99965u99767www9663668w90w9wessaw59www99886688yy9iwwewwwiwu98yyyytty8u8y88uuuuuuyu8uu99f9uuu999u99u98t6yytt6tty768337y78y889978",
"368868666787799w5999w9999w89975w9w9887898888uuwwwiwpwgiwuuuuyuyuyuytyyuyu9u9guuiuu98y9986yyr6uu8yy6yuyyyuuut6ttyt6888wiwwuw99886",
"863636u988888668999w9999u9u9888uu9886868u899iwi9uw9ww9w9wuyuuuuuuyy6t6yuuufi9u9uu88ugguuyyuyuu9uuuy6yuuuuiyrrt6yyuuwhaeiwwww9999",
"wwu9966y88868889999wwiiwwww9989uuw9988y999y9w9iiwi99uwiiuuuuuuuuuuy88uuiiufuiuuuugugwuuuu99ufuufuighiiuiuiutttyuiwuwhekagpwwwwew",
"pgw9u966888898u9u99uiw9wwiuwwiw9iwu88888u9uiuuiiiuggiuggiujuufuuuuuuuiuuufggggiggughguuuuyuuuy8uuuuiuuuuuut6rtttuuuiiighhahhkahh",
"uu9u98998889uuyu9u9uwiuuu9uw9u9999u9899uu9uuuuuiiuwgiuiuiiufuufufuuuuuuuuuuuufyuuuufggyyy3ryt33t63rrrtttrr<366t6ryuuuyihguuugiui",
"iiwuiuuu9uuuuuuuuguuuuuu9u9yu99uuu9i9i9uuiiuyuuigiuuuuuuuufuuuuuuyuuuuuuuytyyuyyyyyuyuuy686t9uy6888866<66tt6888y6tt6rtttyty6yyuu",
"pigguuujiiiiiiffgguuufguuuugiuiiguuuuuuuiiiuuuuuufggjijuuuijjujjjjjfijuyyuuyuuyyyuuuuy9ui9w888888ww9999wi998y9uiuuuu8yyyyuiiuwwi",
"yu9gjiijuigiijjjgggfuuuffgfggigiuugigufgiigiiuuuuuuufuuuyyuuuiiiuujuuiiuuy9yuyytytu88668yyty3336368868uu988u898iiiwi988uiu9uuuyy",
"3,3ryuuyuyuuyuuuufffuuufugjggjggjfuyufffujugguyuyyytytyt6r3rtr3tttuuuuuuuuuyuytryr3r32223326tuuyyu8663t6ty8y88887y8y636<3333<r3,",
"y336yyffijjjfuuuffffyyuuuuyuuyuufuuyyfyuuuuyyyyuyyyyuuyyyt8666t6ytyuuuuuuuuuuyt6tyuu883836333t68663633<,3<,3<6y3<3<<36y888uuyuyy",
"3r333tyyiuuijjifufuuuuufjjfuuufjgfuyuugggggiiiuuy8y98yuu86t<<33633rr3rrrtrrtyy36tt3ttt66y66663tyy336<33<,><33<33t66t8y88836tt3rr",
"3tt33rryyuyyyuuuuyuytyuuufggjjuuuy6ryruuuuhggiiuu988uuy98t7633tty8yuu999y6333,33ty3ruwiiy8ttuyyy6tyyy68u99uw98w96887>66668336663",
"09wew9999u9u8uuuuuutttuuuyyuufuuftr3rrrytytyyyyy8yt66t6y887y988888yu89yuu869967999w999uwu9uuiw99y989987www99w977677707w0esqew0w0",
"wewwwwiw88898yu9yyyyyttyuyuuuyufguttyyyuuyyyuuuu8y6663366tr6y878863366636666666699wuuw99g9ui9999999w899999w999577767764wweeqqqww",
"ewwww99wwwu999u8y9yy63t63tr6yyyyytrrtrrtrrrrtyuuy883363t7ty8y66t8866t833366666636y899u999999u9yuuyy88887t6668636666668868w0wwew0",
"99599w9999w9w99989988989988ut33r3,33ttr2rryr6y8uuwiw9899889999988999899888888363333366883333688888y66r6<<33333368863367779989999",
"866686799995978699888w9wiww87387w6799wi67663336888998767667799wi9897786868>77677166361686331633366<t6t6>>>366689898636ty88t88978",
"99767766666668678876886y88y>3768978878w998876t888686776866686677667>76776877667999119761>16>:>>61671666666687799989878>666766388",
"999976995966668633366636663<36686>666676778y76887616>666681189666777367<1161173116711771>>7>:>>1>17666>8t867889uiiwwuw9u99w89897",
"763666688866666666636t8888888780w666677788776631>66>3>>>><6><>6>1>>67777761<,<><>,,1-:,3>1>>6>>,<<,<<<,,<<,<::,,><>3<36>><667676",
" .....XX++**%===*==*=*=*==*==*===========***$**%*%*@@+@$$+@$$+#++@o@+++$++$$o@+@@@**@++++@+*@@++@++@$$$===**$++@+++++++$#$++OO..",
"%%%@@%@@@@+++@@@@@@++O++o+oOo@o+o+@+++O+++++OOoOooOoOOX.X..O..XXoOOOO.o.OoO.oOOo.XXXo.XXO..OOOOOOOO++$@$*@$$@@oO.X.......ooOO@@$",
"5wpp777559w5w596777997756www776679wwww980w0www06>77670w97669w6>7677770979w0ew9ww579w596179395877777676668>>63>>>6>>:>>:><>117861",
"asssssewwwpwww9567799w9w7wqedqe79essesseeeaaqeqe769weeseqe00qe000wq076667t787161867676677776616616666686>6898>>661666666>779weee",
"9wppppppwwww9wiuw9i9099888957ww0770weqqeaw775899eesdehassssee9977w90eeweei9889666666866767776667999988876>666666666667666<66<78w",
"995wwwwwwww9iwww9w9uu8u988t88888983899w9958799879wiihaaiiiiy866t6676889w91877www596866666661666366666688878787613333378878789836",
"97665999iw9999u8uiuu99wwwwu9iwgww999999998669868898u89eweu6366yy866>6>86668999w99959900978766333636676668879899988668689y9w89889",
"859869w99iuiuuyuuuuuuuuugwwwiwiwwu989999i9888998888y8786667616yt6366666899w9w999999886687688759959566667698ww9w986788y89u9ywwww7",
"8ip99uwiguhghjhhuufuifiiuu99y899996ty8u9uuuu9899yyy7ryyu9988ruyu9u9yt666yy898788w99999889u9ww99uu99999886686989w989uuyy88ty38987",
"y9wgw99y9uuygfujjujyuuuuuuuuuuuuu9uyyuuuuuuuuu8iuyyuuyuyuyyufuuyuytyu8uuuuu8678y8u8u88u99uuiiiii9y8u8989w0wwwwi9wiu9uiuuiytry87y",
"333ugihgggfgujjuuuuuujjhjghhghfuujiijguuuuuuuuiijuuuuujuuuytryuyyuuyuutyuyuiuuuuyyyyyuuuuuigiuuyuuyyyuiii9iiii9uiiyuytuyuiuu6tyy",
"9u3339uuuuuufugfjuuyyyyuuujuujjffuyufuuuuiuuijuufjfuuuuuuhjifffuufjgggiuiiuuuiiuuuuuuuiijgjugiguuuugigihhiiuuiuuyuyytr<3,6uy<,78",
"u8uy3tyuiiuyuuuuiiihjhiigffjjgguufufgigjyyyyujjjijkfjfgfuufjjfffuffffufjfgjggjggjuytyfffjjujggjgujjkkhgjggghguggu8iipw9996388899",
"u8yyuuuuiiiuuiiihiihihjiuufujuguuyyuyyuuuuttryuuuuujjhgjjufffufufyuyuyyutyyuuyuujuyyuuyuyfuyyuuuugghhhgjhhhhhhwgiiwihiigguu98uuu",
"uuuuuuuuiyu8888yuuuuuuuuuuuuuughghhhiuuuu86yyyuuuuyyfuujuuuuuuffjffjjjjjjjguyufjiuuyyffgiggiigguighhhiufiihu9iu9wuiiuutyguyyuuyy",
"8899yyuuuwiiwu9889y9uuiiguuugigggjhhkkhgguyrrtrrrtyryyyuuuuyuyuuuujfuugufjggjjuuuy6rttuuuuhhgggjiuuuiiffggggghhgiuy7rtryu9u8u986",
"iughuyuuuuyuuiuuu888uuiuty6tr3tyuuuuuuuuuuuut6663tr6rr3tytt6333rtrttttuuyyyuufuuuyrrrrrttyyuyytyyytyyryfujjjjjhjiiyyujfyufuuuuyy",
"hhghguuyyuuiiijjiiuiuu9uwig9988yyyyuuuuyyy966666y3663t3666t8yy8yyt8t8t6yuuuuuufujurttuuuuytyuuuiuuujfuyyyyyyyuffjjuufjfffffujguu",
"yrryy6yyyuuuuiuuiuuu988yy8y9u898888888y666636666866836y66t68833333r33r333t6ryryyytrttrrtrrrryyuyyyyyyyuuuuuytrrrrrrrrtttuyrrrttr",
"yytuuuu9uuiuuuiiuiiyi888t666868888uuu9yu88898y889989u86yt7y88667336366y8y68yt33r3>3rttr2rtrrrtyyyuyuuyyyuggguu89uut6tyytrytrrrrr",
"yy8yy67yyyyyyyuiuuuuu98u9988999989u9876y888886868u8999888897986699896999wu966666867y899788363333rt3tuy666yyuuu98u999uw9ifjiwu9u8",
"uy899uyuiwuiu9iuiiiuw99wwi999uu9u9u888u98899888888988998789963868998886898826866786789e9978966663r33336tt6666tyyuty8yu99uu9wwui9",
"896889uyuuuwiuuuuuuuuy9uiigw99u89u9uu88u88899y99i99i986888888668u8999698996688868888999uwuiiuuu8u88633366tt6y3r68y888699u9989998",
"6>6889yyuuuiuyyyuytttyyyuuuuyu9988883339866866u998y763678638836888666899uuu989886r7yuuuiii9uu98998u9uu9u8888998868888976866666>6",
"779w8787yuy6t8y886r6tuyyyyt6t68686>>3<>63>36636686,>>6666>36633685666696t636666y88636r3r3ty8yy8yy6tt686y888yu9u99iw9995876997795",
"688886889we9w98y886t36yy99999999eq779977wiw78889wq4w9877ww0778636168679662>23333<633tt<>,,<<3333r6t3yy8uuu9999998999833363633666",
"+$#$$$=*=====$======****===*******$@@@$@$$*@$@%@$$$@@@$@$*$@$@@@@*@**==*#++OO+++O++OO.X.OXOOXXXXO+##+#+#####+OOOX.OOO+++++#+#+##",
"....OoO+o++++#$$+++++++OOX+O+XX.XXOOOoO.o.OOOOooOoOOOoOoOo+OOo+oo.oOoOO++**=***===*********$****%**==-=-;:==**@@@@@@@+OOX.......",
"11111>161679w0781616996876w0w55668wwwwww7ww0w95668wwewww9weeewww13663366668678888777y978877789888888tyyuuy9uu88688>>>>>1>>>66116",
"99989i09589wpw986666890ww9wessaw55pddsssaeeassaw55gdsasaepwppepeq967997w999u9u99u9yu9uuy8ytyyy86363ttyr6yyy6363368688888998097w9",
"7ty888689959wwwww999595989999wwww9wwwaspepw99wwww9wwieaewew99999uw0wwwui9u999999u9uyuy77yt6<3<33<336ty3tytu66888ui9wiw9988666663",
"36<1886899899u999999uuuuuuuyuuu99u889u9ww9u999999u989u999999999u999iui9uuuuuuu8u9y9u89yu99yu88y8yuuuiyr3t3tuuuwhaawiw9w999986663",
"yy7>3y6688888y88889uuiuuwiuuuuyuuu8uuu9999u9uu9uu99uu999989uu9u9uiuiuiuuuuufuuuuiuuuiiuuu999u9988888uu3ttuuuiiwghawpwwwwiewwu899",
"6<yuyyuu9uuuufugiuuiuyi9yiiuhghuuuuuuuugiiuuiiuuuuuuuyuuuuuuuuyyuuyuuuujfutuuuiiuuiuuyyuuu9iu99u998888t66ttuuu9uiihhhhhhiiiiwu88",
"yuuiuyufgjiuughjjjggfgggggggggigiuuy6yyggugufigii9u9t89uiiuy6t633tyuyuuufuuufuujiiuuyu7t8yyy8yy9888663636y688uuyuihiuuyy8uyy3686",
"uuuijuuyyujuffuyuuuuyyuuuuuiiu999998898tu9yu99uuu8uuu6uuuig9ugggiuyuuuffuuyuuyuuuyu9uuy6666<666<>668668u9983333363r3333689y>6yw8",
"iuuuujiuuggujfgguugjiujufiuu8yrtuuu9uiu9tuuu8uu9y8uuuu9uuuuuuuugiiiiiiiyuuuufjjuyuuyuyi987<6t7678867686888w9663666268uy988w899ii",
"6<3yiiiiuufggghgjjuuuyyuuyuf8u66uyuuiigu6uuuuuuiu3yuuii9igiiuuuuuuuuuuyuuryuyuiji9uy988y8y8889899999888686898968999999iwi68i987y",
"3r36yuuiiiuuyyuyuuuuiuuuuuyuuiuuuy8iuwiiiwiuggw99uy9u9iiuwww9uw9wiiwyy8uyrtuuyyuuu9u97t<388yy8uuu8u89u989683386888uuuuuuu3>633<r",
"y6yyyiiiiw99668uuuuuuuufuu999i9uiu9gggpgggwpwgigiiiiiiiiu9u995997yw9uiuutyyyyuuuuiu99776378y<78t78889u9u966666883686338uu9rtyy6y",
"8888uuiuu99u989uuuu9yuuuu8tfg9ig9igggiwiwhggiwuuuigw9wii9iggiphiuuiuy9y888y8yyyyyuuiii8uu88873y7yuuiujgggw8uu888638668899euu89w9",
"89u8utt33yy938y8yuuuuyuuut6uuiuuuuguwu9ggpiuiuuu9i9uiiu9u99iugggiiiiwu9uuy9uuuuiiuu9uu88yu8iiiuuiuijiiiuuu9y9u9uug99ii9iuiiigh9u",
"uuuuiyu66u8389wuu8u8u9uugu3yuuggggjfgjhkhhgugguwghgiiuihuigiiugiuiuuy9u899uuuuuiuuuiiyyyr789yyuuuuuuujiiiu8y368uyyuuuuuuyiuuggui",
"yuyyuyuu899899iwuuuuuggi99u8uuuuuufuuuugggggiiugghkguuihggiiiuigiiyyuuyuyuiyuuuy9uuyu988yuiiuuuuuuuuuuuuuu98uiguiu9uiiiiiuhiuiuu",
"yytyyuwi989i9y8yyyuu9ugpiwgiiguugufuuutyrttyyttuyufguyuiiijuuuuuyuyyyyuyyyyuyyyyyu88y99889wiuuiiuuyuuuyy8t8t8uwu98i9uwhki9uighgi",
"6rr6yuuiu7366336698uuu9uuugiiwuuyuuuugffuyuffjffjuggfu6tuyuuufutyuy77yuytuu9yu<t9uiyuyt8yuuuuuuyuuyuuuuyy3336899uu89uuiiiuuyyytt",
"63tyuuuuuuyyty6yuuguu9uu9999iuguuuyuttrtytrrrrtuyuuijguuytyyuuyyuuw89t7t7yy67y7yyyuuyy7t68uyyyuuttyuyt333r3,,388t3366<tyytuuuuyu",
"u886yuiuiiuu9w9i9g9uugpuiggguyuuyuuyt6yuuyuuyyyt8yyyyt9y668y6999u98uuiiiu8yy7t7t889888y78u987yyyttyyuy86y633>361,,36668ww9999wuw",
"88y87yyuuuiuiiuuuuuuuuuuugjhg9uyuuuuuuy6u8u8uu98wiiiii8886666669yui97t7<<7<718>>686888978899uu88u6t66886663>>>66668w98u99wu88998",
"66>77yyyyuuuiuyytyttt3ytyyyuuuuyuy8u63369y3>rt368uu683>8666633636>76<3t>678<786667899wi9wui998986668666666761677w9uwweew6996866>",
"w77uu86688uy6yy888t66tuytyyt6t66t86,,3<>33233333897>>>378616661>676169w71671>66666668899u9w989y8>666677666378868689ihww989097670",
">666787899we8w988886r36889u99999ueq759885w099983>1667>>32121>361>6611><77787816>>>636<6833667663t6>,2>>,>3,:,3<<::<,,>333>>33633",
"#+#$$@$**==:*=======**=*===*****$***@@$$$$*@+@@$@+%@*@@+++##@+@$$#+@o@+@++++$+$$+$$$*==;-========*@@$@+$*#******%+@++oO+#++++#+#",
"....oOoO++o+++#++@+@++OO+oO+OOXXoXXXOOOO..OOXXXXO.X.XXOXOXXXX..o....ooOo.ooO.o.+o+++@+#$#$$#@++#+#+o+OO@+@+%**@@++Oooo...X..X...",
">66>61166667www761666997596w0w596780qe0ew7weeweee1>7765w0w059619w6>719w8w9w79www4ww9777w0786676797766478696683116>1>1>:::,>>>>>3",
"w8w7779w9777wew966>66909909wesdqe79eddssssqqssqwas9695wwaasaqewwqeww0w0w77>7t777666676768666747666666666666636886116616696>6878w",
">66688368ww7wwwew0ww98959879805w00690eeeqes0798899weddpppppsdsae0w879wwweweewiw87888666686667778668877995986633666666166666336:>",
">3<,<u8877998798979888989u8868y986771689w9978597769egpaaakapwiwy76373666788i76789009786676666661>6636686669889776616633666676886",
"76y7:>768677778679wwweekaaww9uiippw9988w8w98885999799989wpap9833<7yyy7<<767<17y89w9w099ww098667663>3>666666687999w9567616789w989",
"976yu<,6866889867687785ww9ewwwweww99988589iw899u98y99u669616573378716176<t779ww999w898766668677757w807766366699w9999666966886990",
"9669wwu899wiwiuiw9999979968767767791666695867866099986>68799779519879636133<779761777ww797169879w9997997u8776766977w78978876<<67",
"78879w5688889u99u9u99ww766>>>>>>>186833666686669999336866683u9996<>7<77qeee0ww70471777w879w769w99w078>683780qwwwwww799987789u776",
"7w0480w07767879999888ww0qqwiww7w9,>63163>2666668999869699633>2668118we07070w47wqqe7ww0w76www9999866671>7qe079w00w0w9ww77877y8888",
"661669087678868ww99887990weeaw09wa61166661666889999ww977989u9866986167617www907eqqww9977778w778786677766166197www79998uuy3yy6y87",
"6647677689788889u868899ww0w0w097616>>66361986999999p9888688689667i96897677978977e7767778997w059w99888w88896689w8889i9iiiiiiiy886",
"477777i5989uu888888776677688666886766888g99999u9y9u99uu83u96ui9u7tt16y8utuy7999wi866t77711>0qw87899wy8666y8i68889wuwwiiiiiiu8878",
"1666987789999999873866678899888799u8996uhuuuuuu99uuuigi9gii6uuuutryy7yyyt7tyu87w986<331176>:167wwwiit3tt7y8y666899998u8i9iw98767",
"61>61668788988u88698789wiiwiiii99iuuuyuuu9uu9uwpwiiwiiihguuuyuuiu8uyyuy7yt676tt7988989870q04800wwi9uu8uuyu88u8788898888i88987767",
"1166><8866t6t8yy888683<38yu9uu99gpwgu9uu9uwhiiu6uuuuuyuuii9iu9uuiiu9uy8iuuiuuy9u9y888867117714789989uuu9u89iiwu8886866666666>166",
"76717>66688t3333tt66888867888uyifuuu8yuuhwihi9886668yugi9u9uiuuuy6tt6yt7t7y988u888667666>1766678u9uyyy8y888888899879766676116617",
"688166766877996686876888uyuuuiyyt6663tyyuyttuytt3r3rrrr66363,333<>766668w9>>66133>336>366668666888866t66676789y6897676666667761>",
">78899uu88y8w88788ut36tr6y86y6376t66333rr33r33<6336r66366>,3633>66>1>1>>16><>:>1666667777890777597887y766t7<36776668666667676768",
"w768i8yu98y8u9uu9iuuy73<<333676369669966279666766666136636663>2666>667<3388763>66667766676689997789776y77ty988t89999866666877679",
"yt68u989899u9iwiwiu98886678777889699w98969998888333y68y633r39ut3<6tt6>3r<,<ty8u6689986667666687666888><766<778668699689638978689",
"97www99i988786yy989887676687uwweu8999w9uii9uuyyuuy3636yyt6t,33ty33r<3368986>38667888886678777777777861>>:<>>13177687759868987669",
"678678999998886668y998w989988t686uuugghgipgu9uuuugu9iuu9899u86668y7888iw99888u888899857778686866770www986176777777666689098766>6",
",36<,r3>3368988833,r3r8y9wiegw8833trr33ttryyy6yytt6y6ty88yu9999iw9i9988y86y889988877596966590990w55576788988879y66661>>>3663>66,",
"3>,,,:,>,,,><r63,3,:>,,,,<<r32>336633,,,333336r36368y99999999u99uwi99863,<363668686686669688666669666>6666>766776616663,,:::3,:,",
" .. ..oOOOO+O+Oo+++OO+.......X.OXX.O..XXXXXXOX.OOXXXXXXXOXXXXX.XOO..XX.. XXXXX..XX.....XX........XXXooO+@$$*$=====%@@OOOO.   .  ",
"**&=**@=***=**===*==@@$@$$+@@@@$@@@@*$$***$$@@@@$$@@+@$$@$@*@+@@@@**$*$===***=***@*%*%%@@%@@@&$*%@&&&====:=::=:::=:-=:&****=&&**",
"q0weqww7997888878667878876666363668878876699958886633988999t6388>>>36670eqw95waew9610www7770w00ee00eeqqeweqsewqqeapaqsss000qeees",
"w76766668779577766888987789u96868u9u998999uuu86332>,,:,333363668888wwesassdssssdssdddddddsaeassseqasssssee007w9755500we00e0w0400",
"1616>3>36686678766666667863333>3333t33889886886768666668663887wwwieieseeeesdsaewwepawpsssaspasddddewww9uwhiiieeeaw998688y6666688",
"979w0w766647677w0877878778886333333<33889898899989wwasaaqsspesss0wq0ww9w9w9w595wwewepwwweeepaapaaaapepwwwwweeie0pssaw009www78995",
"77477w0w0we0w90ww877w95909w7w9w979677887777888w79709w09770q00qqeeq0qw000000w00747477545507790w50w0ww00ww7w07777w0w000w0w5955ww97",
"0q0ww00000eww077777799999998666667778897889wwww9ew987776676678wwweeeeeqq00000000000000000qqq00eq00q00w000070004090wqwwe00ee00e00",
"ee0w07777776866675w787867775w877168789988989w9w888776666777787898977770eeqq0qeqqeeeqqew0qqee0ee0w09007w70w70400407440900eswee0ee",
"61667667889766686861605777700577w669979wi98<67878988687688yu999w99876779758w0weqseaeeesssqqsqsaseew00w0w707747w0000w7w4w09776766",
"36366y3666633<>>>>36>7757w9w9869ww9999767676>7w709uwww9ww9998998997997778777877wee0qeesqeeeeeeewss0000w00www0w000eww00867776163>",
">63:<<63r<3r33333>761770w7879787779897786776766678iw78889998uuy6yu7u9999998898999999909wweeee0e0w0ewwww999www9www979763>6616616>",
"89u836y87888u86766>17747677885074w0w0997868w8689y788y887889uiiwiiiyy8uu998988889999999u99999wwwwww09999www00ww7w7797679767678899",
"8888988688u88898766768966667876>17qw8789wuty6688yy8y778889wiiiiiiuu89998uu8uuuwiiwiiiiieiuw999w9ww99999www98w7466688968666668688"
};
