/* XPM */
static char *b6525e1644cb4821d4d426f2ff18d125[] = {
/* columns rows colors chars-per-pixel */
"32 32 240 2 ",
"   c #070705",
".  c #4C413D",
"X  c #734531",
"o  c #022A57",
"O  c #073456",
"+  c #11335D",
"@  c #233755",
"#  c #001C6E",
"$  c #021B7C",
"%  c #042961",
"&  c #043566",
"*  c #002979",
"=  c #01387B",
"-  c #483F40",
";  c #00425D",
":  c #064777",
">  c #2B537B",
",  c #3A5570",
"<  c #2D6C7D",
"1  c #334C53",
"2  c #5A5C5D",
"3  c #464445",
"4  c #685E5C",
"5  c #72685E",
"6  c #575B61",
"7  c #486379",
"8  c #546B7B",
"9  c #7C7D78",
"0  c #746E66",
"q  c #997459",
"w  c #867970",
"e  c #A27562",
"r  c #B35A4C",
"t  c #AD8154",
"y  c #9A8A78",
"u  c #AD8F70",
"i  c #B1A17F",
"p  c #DA9652",
"a  c #E29E5D",
"s  c #FFA745",
"d  c #FEAF53",
"f  c #D48B6C",
"g  c #F7B264",
"h  c #DAA86B",
"j  c #FFC778",
"k  c #001D95",
"l  c #002787",
"z  c #013F8D",
"x  c #003C87",
"c  c #022B94",
"v  c #003B92",
"b  c #003EA9",
"n  c #0136AD",
"m  c #024484",
"M  c #02468C",
"N  c #125283",
"B  c #004C9C",
"V  c #014794",
"C  c #035198",
"Z  c #16579D",
"A  c #0D4F83",
"S  c #2B5295",
"D  c #016597",
"F  c #28679E",
"G  c #35628D",
"H  c #014BA1",
"J  c #0045AD",
"K  c #004CAC",
"L  c #0147A6",
"P  c #0054A4",
"I  c #0254AB",
"U  c #015CAB",
"Y  c #055DA4",
"T  c #135CA0",
"R  c #014BB2",
"E  c #0148B5",
"W  c #0153B2",
"Q  c #005BB4",
"!  c #015CBA",
"~  c #0054B9",
"^  c #0764A9",
"/  c #1766A8",
"(  c #0279AD",
")  c #0262B5",
"_  c #0063BC",
"`  c #0965B2",
"'  c #0771BB",
"]  c #2469A6",
"[  c #366EA5",
"{  c #2975AA",
"}  c #3877AB",
"|  c #2E77BB",
" . c #4E5E82",
".. c #456B8A",
"X. c #46709A",
"o. c #4374A2",
"O. c #4F73A4",
"+. c #737C8B",
"@. c #0159C8",
"#. c #0256CC",
"$. c #0065C5",
"%. c #006ACE",
"&. c #006BC2",
"*. c #0771C3",
"=. c #0171D8",
"-. c #016CD4",
";. c #2F7EC0",
":. c #006AE4",
">. c #017BE0",
",. c #017BF9",
"<. c #5E869F",
"1. c #778694",
"2. c #6E8490",
"3. c #538BB1",
"4. c #6893BE",
"5. c #6D8DAF",
"6. c #7EA2BC",
"7. c #068FD2",
"8. c #0189E9",
"9. c #0088F7",
"0. c #0193FD",
"q. c #0199FA",
"w. c #0D98E6",
"e. c #3995E0",
"r. c #01A7FF",
"t. c #00B4FF",
"y. c #01BAFE",
"u. c #01A3EE",
"i. c #26ACFB",
"p. c #388CD5",
"a. c #4F94CC",
"s. c #769EC1",
"d. c #44A4DE",
"f. c #79A5CC",
"g. c #75ACD7",
"h. c #4696E1",
"j. c #48A5EA",
"k. c #01C1FF",
"l. c #8C8D8C",
"z. c #858585",
"x. c #988C85",
"c. c #8A8E98",
"v. c #939394",
"b. c #9C9C9C",
"n. c #989C97",
"m. c #869296",
"M. c #A79A8A",
"N. c #AB928C",
"B. c #9EA09F",
"V. c #B3A38B",
"C. c #ACA395",
"Z. c #B9A79B",
"A. c #ADAB85",
"S. c #969BA2",
"D. c #869BB1",
"F. c #A39FA0",
"G. c #9BABB3",
"H. c #ACACAB",
"J. c #A8A7A5",
"K. c #BCAFA2",
"L. c #B5B1AB",
"P. c #B4B4B3",
"I. c #BCBCBC",
"U. c #B7B9B8",
"Y. c #A7ADB4",
"T. c #CBB69B",
"R. c #C9B5A9",
"E. c #C3BBB7",
"W. c #D1BFB5",
"Q. c #FCCD8B",
"!. c #F5C584",
"~. c #FFD28A",
"^. c #FDD794",
"/. c #F4C490",
"(. c #FEEA92",
"). c #C9C3BC",
"_. c #D4C8BC",
"`. c #E1CCBC",
"'. c #F3DCBA",
"]. c #F1D2A8",
"[. c #FEE4AA",
"{. c #FEEBB4",
"}. c #FFE7BA",
"|. c #FFFBBA",
" X c #98AFCB",
".X c #97B3C4",
"XX c #84B0D0",
"oX c #A7BACB",
"OX c #BEBEC1",
"+X c #A0AFC4",
"@X c #8BBAE4",
"#X c #C2BFC1",
"$X c #BCC2C6",
"%X c #BBC5D1",
"&X c #C3C4C4",
"*X c #C5C6C8",
"=X c #CBCCCC",
"-X c #C9CAC8",
";X c #D6CDC4",
":X c #D4D2CE",
">X c #DBD4CA",
",X c #CDCFD0",
"<X c #C3CAD0",
"1X c #CED1D1",
"2X c #C8D3DE",
"3X c #D4D4D4",
"4X c #DBD9D6",
"5X c #DBDBDB",
"6X c #D6D6D7",
"7X c #CED0CB",
"8X c #E6D7C9",
"9X c #F9DDCB",
"0X c #E6DDD6",
"qX c #F3DDD3",
"wX c #DCE0DF",
"eX c #FFFAC5",
"rX c #E2E1DE",
"tX c #E9E4D9",
"yX c #FAE2D5",
"uX c #F9E8D9",
"iX c #FFF0DD",
"pX c #D6DFE8",
"aX c #E1DFE2",
"sX c #DAE2E4",
"dX c #E2E2E3",
"fX c #ECE4E3",
"gX c #EDECEB",
"hX c #E9E7E7",
"jX c #F1ECE9",
"kX c #F2F0EE",
"lX c #FEFBEB",
"zX c #FCF4E7",
"xX c #F2EFF2",
"cX c #ECF2FB",
"vX c #F5F5F4",
"bX c #FAF5F4",
"nX c #FDFCF4",
"mX c #FEFEFE",
"MX c #F7F7F9",
"NX c #EBECF0",
/* pixels */
"hXMXMXMXMXbXvXbXkXvXgXdX7XI.P.L.P.P.U.;XrXhXkXvXvXvXbXMXvXvXvXgX",
"mXmXmXmXmXmXmXmXvX4XU.v.l.z.w K.C.w l.v.C.R.8XjXnXmXmXmXmXmXmXmX",
"vXmXmXmXmXmXMXhX_.M.l.I.M.w +.f.a./ ^ T Z F 5.P.8XkXmXmXmXmXmXvX",
"MXmXmXmXmXvX4XS.G 7 x.`.D.{ &.Q W #.J B ! @.L I 5._.jXmXmXmXmXvX",
"vXmXmXmXvX-XZ.<._ U N ] $.$._ _ T z.V.Z U _ Q W b [ E.tXmXmXmXvX",
"vXmXmXMX<Xv.C.<.P ^ _ $._ ! K E [ (.|.Z L ! Q P V * 7 ).hXmXmXvX",
"bXmXmX6XJ.b.K.1.m ) &.) K B o.F J ;..Xm = Q m @ - 3 6 H.&XgXmXvX",
"vXmXdXU.*XU.`.G.C ` _ K Z $XlX8X/ E ~ V I m O / I.R.*XI.P.=XnXMX",
"vXvX&XP.=X8X,X*..X3.n Y :XmXmXnX4.L Q Q W U Y 8.i.rX8X).P.U.wXvX",
"bXsX#XI.E.8Xi.%.yX@Xc XXmXbXvXzXf.K Q I H Q $.U W d.8XI.U.*X=XgX",
"gX:X&XI.9XXX0.7.yXXXc tXmXmX2 K.g.L ! P B U ! K K K .X8X&X=XI.5X",
"aX-X3X-X8Xw.r.w.gX2 ..mXmXkX  x.h.n Q B V H b g.dX` / ;X4X-XI.7X",
"6X=X1XqXoX0.t.7.pXy ).nXnXnX4 +.} T R V x c f.mXaXQ H S.0X-X1X&X",
"1X4X=X9Xg.0.y.< e 2 K.lXvXcX0XT.^.!.> # # } mXE.+ & & 2.tX3XhXU.",
"3X6X5X9Xd.0.y.7.1 X e [.'.'.}.|./.j w 3.O.2X_.; D ( P a.yX4XhXOX",
"4XaX3XqXe.9.r.y.u.V.s ~.eX}.eX'.^.p v.mXhXnXR.( y.t.0.j.qX5X4X=X",
"5XhX4XqXp.,.q.r.t.8.0 p j Q.~.j h @ } >X7XjXyX3.r.q.,.h.uX0XaX,X",
"4XjXkXzXa.:.8.0.r.q.9.A q f 0 , x c  X;XE.jXfX} %.0.:.a.zXxXmX-X",
"6XMXmXnX4.#.>.8.9.0.G.P.].j A.! | b.oXnX4XlXpXU C =.-.s.lXmXmXI.",
"6XMXgXnXoXJ -.=.,.H.g {.eX{.(.M.3.Q.3XzXnX8XX.H C P @.%XlXgXmXE.",
"5XgXsXfXzXT E #.a.u 8 eX[.[.^.g [ !.[.f...+ o : A l | lXgX5X5X*X",
"gX3XdXwXnXD.c E ] u i |.[.[.j a ' C.9 L = z ! m O #  XlXdXgX*X3X",
"bX5X:X7X4XuXG l k 1.Q.Q.(.!.d y %.m o : ` Z Q W $ X.uX=X=X6X*XkX",
"vXvX=X*X,XaX#XS O.s.*Xi g d p / B o o O : & V l Z 4X0X*X*XOX4XMX",
"vXmXdX*X7XOX3X-X;XbXcX1.- 5 A z : & B V & o l S :X>X,X*X#X*XnXMX",
"vXmXMX6XI.P.I.I.H.OXx.r .XQ o o O Z z H l l O.:X;XOXP.#XOXgXmXMX",
"vXmXmXvX3XH.J.:X#Xc.X f 2XU Q > & m l x O.+X8X>XI.F.U.OXaXmXmXvX",
"vXmXmXmXvX=XJ.$XI.H.+Xm.4 7 G b.c. .+.Y._.).b.&XP.J.#X5XmXmXmXvX",
"vXmXmXmXmXvX3XH.l.l.b.,XH.x.w 9 x.K.Z.;X&Xc.l.v.H.*XdXmXmXmXmXvX",
"vXmXmXmXmXmXbXsXI.n.l.OXF.z.x.3XOX+.9 J.U.z.b.P.3XgXmXmXmXmXmXvX",
"mXmXmXmXmXmXmXmXvXaXI.S.l.l.z.J.n.1.v.v.n.U.3XdXnXmXmXmXmXmXmXmX",
"gXbXMXMXvXvXMXvXvXvXjXdX3XE.P.H.L.P.I.,X4XdXvXvXvXMXMXvXMXvXvXgX"
};
