/* XPM */
static char *d9c6159f5b2c447af4cb96afda9f4e24[] = {
/* columns rows colors chars-per-pixel */
"32 32 193 2 ",
"   c #1F0601",
".  c #240A00",
"X  c #2B0D01",
"o  c #2C1100",
"O  c #341501",
"+  c #331800",
"@  c #3B1C00",
"#  c #3A1502",
"$  c #3F2202",
"%  c #432501",
"&  c #4D2501",
"*  c #4A2C01",
"=  c #5A2601",
"-  c #533300",
";  c #5E3C03",
":  c #593600",
">  c #612E02",
",  c #623700",
"<  c #654301",
"1  c #6B4601",
"2  c #6C4A09",
"3  c #784B05",
"4  c #6F500D",
"5  c #73540D",
"6  c #6F4F12",
"7  c #6A5117",
"8  c #795714",
"9  c #7B5E26",
"0  c #4E5A50",
"q  c #5A665C",
"w  c #666553",
"e  c #4C6373",
"r  c #627675",
"t  c #8B6414",
"y  c #946D15",
"u  c #9C751D",
"i  c #97741A",
"p  c #8D6A0E",
"a  c #A2781E",
"s  c #A2771B",
"d  c #A17D25",
"f  c #8E754D",
"g  c #866A43",
"h  c #AB8426",
"j  c #B28B2B",
"k  c #B68B29",
"l  c #BC932C",
"z  c #BF9330",
"x  c #D0920D",
"c  c #C5982E",
"v  c #C59B32",
"b  c #CB9D36",
"n  c #C1A22D",
"m  c #CDA53A",
"M  c #D7A93B",
"N  c #DCB23F",
"B  c #FFBF23",
"V  c #FFBF2D",
"C  c #FFCA0D",
"Z  c #FEC41C",
"A  c #FEC124",
"S  c #FEC22C",
"D  c #FECF29",
"F  c #FED32D",
"G  c #FEC534",
"H  c #FFC63C",
"J  c #FDC83D",
"K  c #FED131",
"L  c #FFDD36",
"P  c #FED939",
"I  c #FFE33E",
"U  c #C5AF4A",
"Y  c #E8BA46",
"T  c #EDC146",
"R  c #FFC743",
"E  c #FECA44",
"W  c #F6C54A",
"Q  c #F6CB4E",
"!  c #FECC4D",
"~  c #FAC74E",
"^  c #FDD24F",
"/  c #FFD74B",
"(  c #EACA58",
")  c #F6C756",
"_  c #FECC52",
"`  c #FCCC5A",
"'  c #F6CC59",
"]  c #FED452",
"[  c #FEDA55",
"{  c #FED059",
"}  c #FFDE59",
"|  c #FFE144",
" . c #FEE747",
".. c #FEE257",
"X. c #FEE45A",
"o. c #FFEA5D",
"O. c #DBC669",
"+. c #CFC27E",
"@. c #DAC670",
"#. c #F6CC65",
"$. c #F7CE6A",
"%. c #F8CE62",
"&. c #FED262",
"*. c #FFDB76",
"=. c #F6D37C",
"-. c #FFDA7A",
";. c #E4C56A",
":. c #FEED60",
">. c #4E738E",
",. c #4E7A93",
"<. c #578FB0",
"1. c #3C9DEA",
"2. c #3599E7",
"3. c #39A3FD",
"4. c #35A9FF",
"5. c #3EA9FF",
"6. c #35A4FE",
"7. c #3BA1EC",
"8. c #5E9DC9",
"9. c #6FA0C1",
"0. c #74A9C9",
"q. c #6EAFD8",
"w. c #4BA4EA",
"e. c #4BA5E8",
"r. c #5DADEC",
"t. c #57AAE9",
"y. c #43A5FB",
"u. c #43AAFE",
"i. c #4DABFB",
"p. c #48A7F2",
"a. c #58ABF4",
"s. c #5FB1F3",
"d. c #55BDFF",
"f. c #5ABCFF",
"g. c #5BB2FD",
"h. c #61ADEB",
"j. c #67AFE1",
"k. c #63B1ED",
"l. c #68B9F8",
"z. c #71B6F1",
"x. c #77BAEE",
"c. c #54C0FE",
"v. c #61C2FE",
"b. c #91B8BD",
"n. c #A5BAA7",
"m. c #C3B59C",
"M. c #C6BAA7",
"N. c #BEC498",
"B. c #9CC1B9",
"V. c #B6C6AC",
"C. c #DCC881",
"Z. c #F6D483",
"A. c #FCDA87",
"S. c #F5DA95",
"D. c #F7DE9D",
"F. c #FFE284",
"G. c #FDE399",
"H. c #FFE090",
"J. c #CFC2B2",
"K. c #D5C9B8",
"L. c #F5DEA3",
"P. c #FAE5A9",
"I. c #F7E7B7",
"U. c #F5F2BD",
"Y. c #87C4FB",
"T. c #A6D5F9",
"R. c #B1D6F7",
"E. c #B1D8F9",
"W. c #B8E8FF",
"Q. c #E3DDD5",
"!. c #F8EAC9",
"~. c #F3ECD9",
"^. c #FCF5D6",
"/. c #FFF6DF",
"(. c #FEFFD3",
"). c #E6E1DB",
"_. c #C1DFF9",
"`. c #C0E0F9",
"'. c #D3E6F6",
"]. c #EDECE9",
"[. c #EAE8E4",
"{. c #F4F5EF",
"}. c #FFFAEE",
"|. c #FBF5E5",
" X c #E3ECF4",
".X c #E7F4FC",
"XX c #F5F5F4",
"oX c #F8F5F5",
"OX c #FDFBF2",
"+X c #F7F6F8",
"@X c #F7F8F9",
"#X c #FEFFFE",
"$X c #F8F8F8",
/* pixels */
"[.XX@X$X$XXXXXXXoXXX{.I.S.=.#.~ W %.=.S.I.|.{.XXoXXXXX@XXXXXXX].",
"#X#X#X#X#X#X#X#X}.G.{ S S S J ! ! J S V S ! A.|.#X#X#X#X#X#X#X#X",
"XX#X#X#X#X#X#XP.E A J ! ! ! ! ! ! ! ! ! ! E A H G.#X#X#X#X#X#XXX",
"XX#X#X#X#X#X*.A J ! ! ! ! _ ! ! ! ! ! ! ! ! ! E A &.}.#X#X#X#XXX",
"XX#X#X#X}.{ A ! ! _ ! ! ! ! ! ! ! ! ! ! ! ! ! ! ! A E |.#X#X#X+X",
"XX#X#X#X{ A _ ! ! ! ! ! ! ! ! ! ! _ ! ! ! ! ! ! ! ] S E }.#X#XXX",
"XX#X#X*.B _ ! ! [ X.X.] ! ! ! ! ! ! ! ! ] ..X.[ ! ! _ S &.#X#XXX",
"XX#XI.B ! ! ] o.T j 6 l [ ! ^ ! ! ! ! } m 6 h Y ..[ ! ! B G.#XXX",
"XX}.E J ! [ X.j % o $ h X.! ! ! ! ! ! X.v % o $ d [ [ ! E G /.XX",
"XXP.A ! } ] t . ; l Q [ ! ! ! _ ! _ ! ~ [ ] n 2 . 5 ] X._ A A.XX",
"{.` G ] } t . t [ o.[ ! ! ! ! _ ^ ! ! ! ! ] o.[ u . 2 ] ] J E |.",
"!.S ! o.k . t o.} ! [ ] ! ! ! _ ! ! ! _ ] [ _ [ o.a . s :.! V P.",
"S.A X.Y % ; { ..} ^ T Q X.] ! ! ! ! ^ X.! Y ] ..[ ..4 + m [ S Z.",
"Z.G ..c . c :.o.N 8 ; < h [ ] ! ! ^ X.k 2 ; 4 m } o.M X h o.H $.",
"#.H _ ~ N {  .x $ + % $ . t X.] ^ X.u X @ % # + x P { N T ! E ) ",
"W ! ! ! } P ' q ; p u i 8 + i X.X.k @ 5 i u y 1 0 O.L ..] _ ! W ",
"W ! ! ! F ( t.4.@.L X.X.[ m l ^ ] v b ] X.} | ( u.i.O.D ! ! ! ~ ",
"%.R _ F ( a.5.u.B.L ^ ! _ X.[ ! ! [ ..] ! ] L V.5.u.i.O.F ^ E ` ",
"=.S K ^ h.5.h.i.j.W E ..X.o.o.X.X...o.X.} / J 0.u.k.u.i.( K R #.",
"S.A K q.3.h.r.s.g.7 3 p s h l v c c h a y 3 2 t.g.k.h.u.k.E Z Z.",
"I.C n.4.h.r.r.r.d.r = % # O O # # O O O % = w f.s.r.r.r.4.b.C D.",
"^.C.3.a.r.r.r.r.1.T.#X).K.J.M.m.m.M.J.K.Q.#XW.1.r.h.t.r.r.3.+.U.",
"XXY.7.h.r.r.r.r.p.9.Q.#X#X#X#X#X#X#X#X#X#X~.9.i.r.r.r.r.r.p.z.{.",
" Xa.t.r.r.r.h.k.c.<.= g m.).oX#X#X$X[.M.f > ,.v.h.r.r.r.r.t.p.'.",
" Xe.a.h.r.r.r.r.f.8., & & < 6 9 9 6 < * & , <.c.r.r.r.r.h.r.w.'.",
"$Xx.7.k.r.r.r.h.c.>.= 1 < ; : - - : ; < 1 = e c.r.r.r.r.r.w.k.].",
"{.'.2.e.r.r.r.u.g.U 3 % - < < 1 1 < < - % 2 l z.4.h.r.r.w.2._.+X",
"XX#X`.e.1.1.3.r.@.I ] j 5 - * * * * - 4 h ~  .( j.3.1.1.w.R.#XXX",
"XX#X#X.XE.T.V.B F ! ] o.] M c h j l m _ o.[ ! K A N.T.R..X#X#XXX",
"XX#X#X#X#X#X|.F.G A E ! _ } o.o.X.X.X.] ! E V G *.(.@X#X#X#X#XXX",
"#X#X#X#X#X#X#X#X^.A.R S S J E _ ! E J S S H -.!.#X#X#X#X#X#X#X#X",
"].XXXX$XXXXXXXXXXXXX~.L.Z.#.) W ~ ) $.=.P.!.XXXX{.oX$XXXXXXXXX]."
};
